<?xml version="1.0" encoding="UTF-8"?>
<svg version="1.1" xmlns="http://www.w3.org/2000/svg" width="1024" height="1024">
<path d="M0 0 C337.92 0 675.84 0 1024 0 C1024 337.92 1024 675.84 1024 1024 C686.08 1024 348.16 1024 0 1024 C0 686.08 0 348.16 0 0 Z " fill="#0A0A0A" transform="translate(0,0)"/>
<path d="M0 0 C2.92106967 1.72390997 5.41361346 3.81432123 8 6 C46.06015582 37.34709153 105.07213171 52.21120765 152.5 62.3125 C153.46832764 62.51987793 154.43665527 62.72725586 155.43432617 62.94091797 C160.19163691 63.91448039 164.84359393 64.63607937 169.6875 65.0078125 C176.44752865 65.55312188 181.95285563 67.51829764 186.734375 72.50390625 C190.89950408 77.88882313 191.93734568 81.68904209 191.94621277 88.54190063 C191.94847833 89.26342516 191.95074388 89.98494969 191.95307809 90.7283386 C191.95942233 93.15305568 191.95858841 95.57771693 191.95776367 98.00244141 C191.96075522 99.73882622 191.96415774 101.47521036 191.96794128 103.21159363 C191.97679385 107.93761687 191.97912015 112.663622 191.97975707 117.38965273 C191.98046778 120.34752242 191.98260267 123.30538752 191.98525429 126.26325607 C191.99451744 136.5986841 191.99858866 146.93409921 191.99780273 157.26953125 C191.99720424 166.87308469 192.00770857 176.47658154 192.0235464 186.08012068 C192.03668118 194.34195232 192.04198403 202.60376563 192.04134732 210.86560762 C192.04109373 215.79183015 192.04386654 220.71800258 192.05452538 225.64421463 C192.06430459 230.29157121 192.06421923 234.93883091 192.05700874 239.58619118 C192.05597442 241.27868989 192.05825592 242.97119495 192.0643692 244.66368294 C192.20845883 287.37459016 178.00061392 327.96066745 152.8125 362.5 C152.11906494 363.46292969 152.11906494 363.46292969 151.41162109 364.4453125 C136.48839568 385.09367514 119.24291156 405.21185116 99.81640625 421.7734375 C97.56016614 423.71741046 95.37886107 425.73323518 93.1875 427.75 C87.56493324 432.81545268 81.66499905 437.47128597 75.66455078 442.07617188 C74.45911077 443.00289559 73.25678237 443.93368557 72.05810547 444.86914062 C7.34784672 495.36589849 7.34784672 495.36589849 -16.1875 492.5 C-25.07461632 489.60975661 -33.09449197 484.92131064 -41.0625 480.125 C-41.93124252 479.60576965 -41.93124252 479.60576965 -42.8175354 479.0760498 C-66.24908602 465.05785047 -88.26367544 449.02334885 -109.1875 431.5 C-109.67878387 431.09129669 -110.17006775 430.68259338 -110.67623901 430.26150513 C-119.26650467 423.09714817 -127.40519539 415.6015902 -135.28491211 407.66333008 C-137.00998477 405.92745269 -138.74561991 404.2026491 -140.48242188 402.47851562 C-147.17402209 395.79522818 -153.34300212 388.94614809 -159.1875 381.5 C-160.13993409 380.33040547 -161.09406331 379.16218674 -162.05078125 377.99609375 C-183.86643422 350.75262282 -201.00361125 319.58604537 -208.9375 285.4375 C-209.13625732 284.58833008 -209.33501465 283.73916016 -209.53979492 282.86425781 C-212.63209044 268.81969574 -213.48815081 254.97310814 -213.47802734 240.65429688 C-213.48402954 238.93094599 -213.49083888 237.20759776 -213.49838257 235.48425293 C-213.51585983 230.85669692 -213.5207296 226.22921509 -213.52201414 221.60162926 C-213.52344467 218.70422488 -213.52773075 215.80683886 -213.53300858 212.90943909 C-213.55143531 202.78531716 -213.55968686 192.66124752 -213.55810547 182.53710938 C-213.55690015 173.1210544 -213.57809768 163.70522716 -213.6095928 154.28922987 C-213.63575522 146.17673658 -213.64647306 138.06431785 -213.64519465 129.9517827 C-213.64468581 125.11819936 -213.65032874 120.28481972 -213.67155075 115.45127869 C-213.69093724 110.91366486 -213.69105493 106.37644943 -213.67651749 101.83882141 C-213.6744301 100.1780031 -213.67912613 98.51715974 -213.6912384 96.85638428 C-213.75614372 87.33865414 -213.79810937 79.85726676 -207.2578125 72.2578125 C-206.61585938 71.71898437 -205.97390625 71.18015625 -205.3125 70.625 C-204.67570312 70.07070313 -204.03890625 69.51640625 -203.3828125 68.9453125 C-198.28188028 65.58704751 -192.61622423 65.06260328 -186.6875 64.3125 C-134.35055231 56.95330943 -70.78923467 37.81855734 -28.1875 5.5 C-27.37925781 4.88898438 -26.57101562 4.27796875 -25.73828125 3.6484375 C-24.40847209 2.64093397 -23.08510801 1.62475738 -21.7734375 0.59375 C-16.1551664 -3.28091972 -6.01662455 -2.79871675 0 0 Z " fill="#D52537" transform="translate(513.1875,256.5)"/>
<path d="M0 0 C14.19 0 28.38 0 43 0 C46.37422404 10.12267212 46.37422404 10.12267212 47.61547852 15.22900391 C47.89815079 16.38315796 48.18082306 17.53731201 48.47206116 18.72644043 C48.77132004 19.96398071 49.07057892 21.201521 49.37890625 22.4765625 C49.70637724 23.81735967 50.03426496 25.15805512 50.36253357 26.49865723 C51.06545046 29.37154884 51.76636817 32.24491684 52.46557617 35.11871338 C54.34480116 42.84165258 56.23483427 50.5619399 58.12890625 58.28125 C58.32491047 59.0804398 58.52091469 59.87962959 58.72285843 60.70303726 C61.77635489 73.14281235 64.90929257 85.56089579 68.08984375 97.96875 C68.50717918 99.59946348 68.92446164 101.23019053 69.34169006 102.8609314 C71.14941502 109.92255099 72.96169017 116.98288607 74.79222202 124.03863144 C75.54508709 126.94745507 76.291057 129.85801751 77.03541756 132.76902771 C77.37990892 134.10970962 77.72740252 135.44962463 78.07827568 136.78865051 C80.10662129 144.53320755 81.58917047 151.99433086 82 160 C84.64 160 87.28 160 90 160 C90.12044678 158.87376221 90.24089355 157.74752441 90.36499023 156.5871582 C90.96229873 151.83557722 92.01846741 147.25199141 93.16015625 142.60546875 C93.37865738 141.70233444 93.59715851 140.79920013 93.82228088 139.86869812 C96.89254508 127.23480299 100.08433028 114.63038785 103.26782227 102.0246582 C106.55611283 88.99464927 109.7307675 75.94899859 112.72195435 62.84750366 C115.32536354 51.48902534 118.12054721 40.18023911 120.9519043 28.87670898 C121.83361418 25.35312117 122.70889789 21.8279723 123.58398438 18.30273438 C124.14545353 16.05459261 124.70728745 13.80654191 125.26953125 11.55859375 C125.52990677 10.50788193 125.79028229 9.4571701 126.05854797 8.37461853 C126.41979012 6.93899315 126.41979012 6.93899315 126.78833008 5.47436523 C126.99895584 4.63123276 127.2095816 3.78810028 127.42658997 2.91941833 C128 1 128 1 129 0 C130.35094982 -0.09268999 131.70667091 -0.11747326 133.06079102 -0.11352539 C133.92160782 -0.11344986 134.78242462 -0.11337433 135.66932678 -0.11329651 C136.60473801 -0.10813522 137.54014923 -0.10297394 138.50390625 -0.09765625 C139.45692123 -0.0962413 140.40993622 -0.09482635 141.39183044 -0.09336853 C144.44875165 -0.08775152 147.50560077 -0.07519616 150.5625 -0.0625 C152.62955624 -0.05748719 154.69661362 -0.05292391 156.76367188 -0.04882812 C161.84247588 -0.03777656 166.9212257 -0.02050055 172 0 C171.40977472 4.73305893 170.49630245 9.15450081 169.14453125 13.7265625 C168.96258713 14.34731659 168.78064301 14.96807068 168.59318542 15.6076355 C168.00396494 17.61473074 167.40820846 19.61982194 166.8125 21.625 C166.39854125 23.03174011 165.98513502 24.43864292 165.57226562 25.84570312 C164.75369226 28.63490715 163.93334309 31.42357861 163.11181641 34.21191406 C161.71601074 38.96758397 160.35241613 43.73184754 159 48.5 C156.33822893 57.8571563 153.6232883 67.19868435 150.90673828 76.54003906 C148.58601963 84.52146848 146.27499375 92.50538918 144 100.5 C141.33839157 109.85322283 138.62609185 119.19152491 135.90975952 128.52896118 C133.76805584 135.89175682 131.63378765 143.25637013 129.53857422 150.63256836 C128.60170439 153.92925387 127.65683002 157.22361192 126.71044922 160.51757812 C126.21398195 162.25231326 125.72110683 163.98807867 125.23095703 165.72460938 C124.4556646 168.46522256 123.66666776 171.20157833 122.875 173.9375 C122.64530518 174.76080811 122.41561035 175.58411621 122.17895508 176.43237305 C120.54095589 182.02532797 118.64564851 186.75913738 114.06762695 190.63671875 C109.38182234 192.71913283 104.85792812 192.44778914 99.78515625 192.43359375 C98.69665878 192.4388356 97.60816132 192.44407745 96.48667908 192.44947815 C94.18782401 192.45589318 91.8889361 192.45456811 89.59008789 192.44604492 C86.07834235 192.43753838 82.56822542 192.46630012 79.05664062 192.49804688 C76.82031299 192.49965912 74.58398247 192.49908091 72.34765625 192.49609375 C71.30062027 192.50732773 70.25358429 192.51856171 69.17481995 192.53013611 C63.14190024 192.4726474 59.58774056 192.04028875 55 188 C53.6796875 186.0625 53.6796875 186.0625 52.875 184 C52.56046875 183.19949219 52.2459375 182.39898438 51.921875 181.57421875 C51.61765625 180.72472656 51.3134375 179.87523437 51 179 C50.69578125 178.18144531 50.3915625 177.36289062 50.078125 176.51953125 C47.46322963 169.09279974 45.46533616 161.49706173 43.42016602 153.89941406 C39.39307038 138.96981547 34.98147418 124.15451744 30.4375 109.375 C27.88597026 101.06894137 25.52352018 92.72774178 23.26708984 84.3371582 C19.29199327 69.59519116 14.92335362 54.96859679 10.4375 40.375 C8.05762454 32.61250252 5.78071498 24.8278538 3.625 17 C3.24879517 15.64720947 3.24879517 15.64720947 2.86499023 14.26708984 C2.63368408 13.4158252 2.40237793 12.56456055 2.1640625 11.6875 C1.86169678 10.57955078 1.86169678 10.57955078 1.55322266 9.44921875 C0.84993862 6.3356506 0.4514181 3.1599267 0 0 Z " fill="#232222" transform="translate(426,432)"/>
<path d="M0 0 C7.42717682 3.70583562 7.42717682 3.70583562 9.59683228 8.60768127 C11.81543677 15.6310926 11.41874169 22.93043274 11.38818359 30.21459961 C11.39225482 31.84860076 11.39759978 33.48259916 11.40411377 35.11659241 C11.41774612 39.53922089 11.41250072 43.96163844 11.40297651 48.38427043 C11.39533683 53.04325949 11.40243944 57.70223148 11.40713501 62.36122131 C11.41258929 70.2017029 11.40541918 78.04209968 11.39111328 85.88256836 C11.37488429 94.87945061 11.38000508 103.87612781 11.3965925 112.87300485 C11.41033344 120.64339733 11.41206343 128.41372903 11.40427649 136.18412977 C11.39965588 140.80372012 11.3988147 145.4232152 11.40888596 150.042799 C11.53228117 215.70157825 11.53228117 215.70157825 2 230 C1.34 230 0.68 230 0 230 C0.04640625 230.825 0.0928125 231.65 0.140625 232.5 C-0.02333854 236.58087034 -1.01076155 240.14459148 -2.25 244 C-2.45496094 244.68578125 -2.65992188 245.3715625 -2.87109375 246.078125 C-4.29738873 250.60769208 -6.26071178 254.0786123 -9 258 C-9.45338744 259.61924085 -9.90279844 261.24031203 -10.296875 262.875 C-11.61163349 266.84849234 -13.76596931 270.46362768 -15.7578125 274.1328125 C-17.04316458 277.09963144 -17.04734294 278.83328302 -17 282 C-17.98828125 283.84375 -17.98828125 283.84375 -19.3125 285.5 C-20.8569415 287.50301516 -22.21733158 289.37127477 -23.5 291.5625 C-24.9968727 293.99491814 -26.70331719 296.06570278 -28.62109375 298.1796875 C-30.19270567 300.16449134 -30.19270567 300.16449134 -31.8125 303.27734375 C-33.98330434 307.146265 -36.63496267 310.36994068 -39.5625 313.6875 C-40.09568848 314.29851562 -40.62887695 314.90953125 -41.17822266 315.5390625 C-42.77844585 317.36571894 -44.38824841 319.18351654 -46 321 C-46.81082031 321.92425781 -47.62164063 322.84851563 -48.45703125 323.80078125 C-54.36922489 330.40066139 -60.58140625 336.70809109 -66.82110596 342.99633789 C-67.80678494 343.99012497 -68.79098529 344.98538104 -69.77362061 345.98217773 C-71.17311646 347.39971124 -72.58060339 348.80934129 -73.98828125 350.21875 C-74.80852783 351.04310547 -75.62877441 351.86746094 -76.47387695 352.71679688 C-79.15420445 355.13937567 -81.97190272 357.03794596 -85 359 C-86.3938957 360.31323627 -87.75207101 361.66596479 -89.0625 363.0625 C-91.84111792 366.02294976 -94.50819202 367.94599531 -98 370 C-99.81621277 371.40635944 -101.60703379 372.84594923 -103.375 374.3125 C-104.81359375 375.50166016 -104.81359375 375.50166016 -106.28125 376.71484375 C-108.50005771 378.57978988 -110.69384228 380.46648699 -112.875 382.375 C-115.44353761 384.59135042 -118.03206049 386.33505833 -121 388 C-125.85732114 390.90177627 -130.42729837 394.02402607 -134.92578125 397.453125 C-140.37998973 401.52067031 -145.91738989 404.95869495 -152 408 C-152.67095703 408.69609375 -152.67095703 408.69609375 -153.35546875 409.40625 C-156.88005847 412.82200441 -161.68172335 414.74840487 -166 417 C-167.00289062 417.53367187 -168.00578125 418.06734375 -169.0390625 418.6171875 C-179.88761043 424.25170464 -187.74051248 426.74834616 -200 425 C-200 424.34 -200 423.68 -200 423 C-202.31 422.34 -204.62 421.68 -207 421 C-207 420.34 -207 419.68 -207 419 C-208.485 418.6596875 -208.485 418.6596875 -210 418.3125 C-214.5429318 417.01061774 -218.0825982 414.57429261 -222 412 C-223.7650861 410.90732765 -225.53606516 409.82412339 -227.3125 408.75 C-228.13363281 408.24984375 -228.95476562 407.7496875 -229.80078125 407.234375 C-232.06084455 405.87495466 -232.06084455 405.87495466 -235 405 C-235 404.34 -235 403.68 -235 403 C-236.32 403 -237.64 403 -239 403 C-239 402.34 -239 401.68 -239 401 C-239.99 401 -240.98 401 -242 401 C-243.02104551 400.02149805 -244.0206121 399.02019573 -245 398 C-245.99 397.67 -246.98 397.34 -248 397 C-249 396 -250 395 -251 394 C-251.99 393.67 -252.98 393.34 -254 393 C-254 392.34 -254 391.68 -254 391 C-254.66 391 -255.32 391 -256 391 C-256 390.34 -256 389.68 -256 389 C-256.680625 388.7525 -257.36125 388.505 -258.0625 388.25 C-261.56865083 386.75802092 -264.71620368 384.93164489 -268 383 C-268 382.34 -268 381.68 -268 381 C-269.32 380.67 -270.64 380.34 -272 380 C-272 379.34 -272 378.68 -272 378 C-272.598125 377.896875 -273.19625 377.79375 -273.8125 377.6875 C-276.31258286 376.90175967 -277.37535082 376.03081147 -279 374 C-279 373.34 -279 372.68 -279 372 C-280.051875 371.6596875 -280.051875 371.6596875 -281.125 371.3125 C-284.74128535 369.66158712 -287.08769976 367.7091165 -290 365 C-290 364.34 -290 363.68 -290 363 C-290.721875 362.773125 -291.44375 362.54625 -292.1875 362.3125 C-295.56591209 360.73590769 -297.36694293 358.6368511 -300 356 C-302.04521267 354.38098499 -304.0951847 352.80407703 -306.1875 351.25 C-315.95434663 343.81516394 -324.02301533 336.07508632 -331.453125 326.3125 C-334.45135161 322.37426475 -337.70890563 318.69353797 -341 315 C-345 310.28205128 -345 310.28205128 -345 308 C-345.99 307.67 -346.98 307.34 -348 307 C-348.6875 304.9375 -348.6875 304.9375 -349 303 C-349.66 303 -350.32 303 -351 303 C-351.33 301.68 -351.66 300.36 -352 299 C-348.44527901 301.67432815 -345.73517189 304.381501 -343.0234375 307.8984375 C-337.88037383 314.30545641 -332.21603616 320.08676213 -326.38964844 325.87109375 C-324.62719762 327.62281575 -322.87571432 329.38499428 -321.125 331.1484375 C-314.38873097 337.89257628 -307.47537065 344.07582722 -300 350 C-298.90983489 350.92298036 -297.82522866 351.85263049 -296.75 352.79296875 C-287.58823407 360.77047232 -277.8752562 367.93377944 -268 375 C-266.97302002 375.73500732 -266.97302002 375.73500732 -265.92529297 376.48486328 C-251.52197135 386.72682672 -236.47422482 396.04381093 -221.0625 404.6875 C-220.33562988 405.09750244 -219.60875977 405.50750488 -218.85986328 405.92993164 C-210.67812347 410.44250101 -203.3602467 412.6863642 -194.09765625 410.23046875 C-156.45254309 396.795958 -119.53738764 366.42836926 -90.6953125 339.51171875 C-88.14313351 337.13338383 -85.54904659 334.81273326 -82.9375 332.5 C-74.7691588 325.15899883 -67.09536395 317.38270846 -60 309 C-59.20335937 308.0925 -58.40671875 307.185 -57.5859375 306.25 C-45.93665729 292.89250119 -35.61807041 278.49075477 -27 263 C-26.56445801 262.22317871 -26.12891602 261.44635742 -25.68017578 260.64599609 C-16.0198272 243.26954129 -8.48192373 225.40716487 -4 206 C-3.71382812 204.80890625 -3.42765625 203.6178125 -3.1328125 202.390625 C-0.06463161 189.00751217 0.14422798 175.77725934 0.11352539 162.11425781 C0.11324279 160.33911134 0.11340268 158.56396476 0.1139679 156.78881836 C0.11425302 152.00454717 0.10840258 147.22030142 0.10139394 142.43603611 C0.09511274 137.42324009 0.09455285 132.41044339 0.09336853 127.39764404 C0.09026921 117.92072525 0.08207479 108.44381809 0.07201904 98.9669044 C0.06081432 88.17118619 0.05533649 77.3754674 0.05032361 66.57974482 C0.03989092 44.38649007 0.02231873 22.19324577 0 0 Z " fill="#681120" transform="translate(704,337)"/>
<path d="M0 0 C0.33 0.66 0.66 1.32 1 2 C3.02463255 2.65213292 3.02463255 2.65213292 5 3 C5.71442167 8.14538789 6.12537935 13.09185488 6.12698364 18.29718018 C6.12854363 18.98566913 6.13010362 19.67415809 6.13171089 20.38351035 C6.13566571 22.66617781 6.13255278 24.94877749 6.12939453 27.23144531 C6.13075107 28.87815896 6.13253243 30.52487231 6.13470459 32.17158508 C6.13925024 36.62839411 6.13750079 41.08517991 6.1343255 45.54198933 C6.13178537 50.21954216 6.1341442 54.89709308 6.13571167 59.574646 C6.13752926 67.43274287 6.13513856 75.29083034 6.13037109 83.14892578 C6.12493685 92.21019155 6.1266867 101.27143479 6.1321975 110.33270001 C6.13674938 118.1317124 6.13736881 125.93071804 6.13475883 133.72973132 C6.13320648 138.37904145 6.13297342 143.02834102 6.13629532 147.67765045 C6.13920397 152.05418122 6.13714379 156.43068323 6.13140106 160.80721092 C6.1300891 162.4050587 6.13044068 164.00290893 6.13266373 165.60075569 C6.14737101 177.25487097 5.81850419 188.7204528 3.5625 200.1875 C3.42908203 200.86965576 3.29566406 201.55181152 3.15820312 202.25463867 C2.78019883 204.17136696 2.39053224 206.08578498 2 208 C1.82339844 208.86882812 1.64679688 209.73765625 1.46484375 210.6328125 C1.01013818 212.7649613 0.51774246 214.88231656 0 217 C-0.20238281 217.845625 -0.40476562 218.69125 -0.61328125 219.5625 C-2.1711596 225.68957464 -4.28088631 231.38594911 -6.81640625 237.17578125 C-8.3215129 240.76717434 -9.67258484 244.36292418 -10.4375 248.1875 C-11 250 -11 250 -12.37109375 251.31640625 C-14.29656104 253.30651752 -15.35083966 255.29109407 -16.625 257.75 C-23.75042656 271.0706866 -31.61276838 284.0214733 -41.23046875 295.7109375 C-43.16985308 297.95951405 -43.16985308 297.95951405 -44 301 C-45.62895643 302.70354234 -47.30471271 304.3624541 -49 306 C-51.31508527 308.41558836 -53.59350158 310.8652094 -55.875 313.3125 C-56.75478516 314.25125977 -56.75478516 314.25125977 -57.65234375 315.20898438 C-60.64971809 318.42045688 -63.58506695 321.66561562 -66.4453125 325 C-70.06378266 329.15695101 -73.9667193 332.93649277 -78 336.6875 C-79.11084961 337.7245105 -79.11084961 337.7245105 -80.24414062 338.7824707 C-96.21465072 353.61247362 -113.15665874 366.82840164 -130.7734375 379.63671875 C-133.27854875 381.47157627 -135.73952345 383.34098125 -138.1875 385.25 C-142.03171433 388.13928211 -146.13610635 390.48909903 -150.30859375 392.87109375 C-155.88893456 396.06459572 -161.37619229 399.41689864 -166.88183594 402.73681641 C-185.95695876 414.21867408 -185.95695876 414.21867408 -197 414 C-199.2421875 413.203125 -199.2421875 413.203125 -201 412 C-201.495 410.515 -201.495 410.515 -202 409 C-202.99 408.67 -203.98 408.34 -205 408 C-204.08734375 407.92265625 -204.08734375 407.92265625 -203.15625 407.84375 C-184.47993029 405.42681451 -166.08079934 391.6523272 -150.8125 381.375 C-149.94350067 380.79256531 -149.94350067 380.79256531 -149.0569458 380.19836426 C-128.85404346 366.64594374 -109.49655332 352.12459336 -91.6953125 335.51171875 C-89.14313351 333.13338383 -86.54904659 330.81273326 -83.9375 328.5 C-75.7691588 321.15899883 -68.09536395 313.38270846 -61 305 C-60.20335937 304.0925 -59.40671875 303.185 -58.5859375 302.25 C-46.93665729 288.89250119 -36.61807041 274.49075477 -28 259 C-27.56445801 258.22317871 -27.12891602 257.44635742 -26.68017578 256.64599609 C-17.0198272 239.26954129 -9.48192373 221.40716487 -5 202 C-4.71382812 200.80890625 -4.42765625 199.6178125 -4.1328125 198.390625 C-1.09602853 185.14446252 -0.8425464 172.0075043 -0.79467773 158.48144531 C-0.78507893 156.74570493 -0.77506774 155.00996679 -0.76467896 153.27423096 C-0.73784055 148.59741922 -0.7167181 143.92059762 -0.69667697 139.24375248 C-0.67468616 134.34304608 -0.64736204 129.44236938 -0.62062073 124.54168701 C-0.57086975 115.27728591 -0.52586625 106.01286818 -0.48259836 96.74843478 C-0.43307482 86.19452872 -0.37821315 75.64065247 -0.32291877 65.0867753 C-0.20936912 43.39121136 -0.10247212 21.69561891 0 0 Z " fill="#7F1325" transform="translate(705,341)"/>
<path d="M0 0 C0.66 0.66 1.32 1.32 2 2 C0.8553125 3.5778125 0.8553125 3.5778125 -0.3125 5.1875 C-1.81384695 7.28181591 -3.19655062 9.33577397 -4.5 11.5625 C-5.9968727 13.99491814 -7.70331719 16.06570278 -9.62109375 18.1796875 C-11.19270567 20.16449134 -11.19270567 20.16449134 -12.8125 23.27734375 C-14.98330434 27.146265 -17.63496267 30.36994068 -20.5625 33.6875 C-21.09568848 34.29851563 -21.62887695 34.90953125 -22.17822266 35.5390625 C-23.77844585 37.36571894 -25.38824841 39.18351654 -27 41 C-27.81082031 41.92425781 -28.62164063 42.84851563 -29.45703125 43.80078125 C-35.36922489 50.40066139 -41.58140625 56.70809109 -47.82110596 62.99633789 C-48.80678494 63.99012497 -49.79098529 64.98538104 -50.77362061 65.98217773 C-52.17311646 67.39971124 -53.58060339 68.80934129 -54.98828125 70.21875 C-55.80852783 71.04310547 -56.62877441 71.86746094 -57.47387695 72.71679688 C-60.15420445 75.13937567 -62.97190272 77.03794596 -66 79 C-67.3938957 80.31323627 -68.75207101 81.66596479 -70.0625 83.0625 C-72.84111792 86.02294976 -75.50819202 87.94599531 -79 90 C-80.81621277 91.40635944 -82.60703379 92.84594923 -84.375 94.3125 C-85.3340625 95.10527344 -86.293125 95.89804687 -87.28125 96.71484375 C-89.50005771 98.57978988 -91.69384228 100.46648699 -93.875 102.375 C-96.44353761 104.59135042 -99.03206049 106.33505833 -102 108 C-106.85732114 110.90177627 -111.42729837 114.02402607 -115.92578125 117.453125 C-121.37998973 121.52067031 -126.91738989 124.95869495 -133 128 C-133.67095703 128.69609375 -133.67095703 128.69609375 -134.35546875 129.40625 C-137.88005847 132.82200441 -142.68172335 134.74840487 -147 137 C-148.00289062 137.53367187 -149.00578125 138.06734375 -150.0390625 138.6171875 C-160.88761043 144.25170464 -168.74051248 146.74834616 -181 145 C-181 144.34 -181 143.68 -181 143 C-183.31 142.34 -185.62 141.68 -188 141 C-188 140.34 -188 139.68 -188 139 C-189.485 138.6596875 -189.485 138.6596875 -191 138.3125 C-195.5429318 137.01061774 -199.0825982 134.57429261 -203 132 C-204.7650861 130.90732765 -206.53606516 129.82412339 -208.3125 128.75 C-209.54419922 127.99976563 -209.54419922 127.99976563 -210.80078125 127.234375 C-213.06084455 125.87495466 -213.06084455 125.87495466 -216 125 C-216 124.34 -216 123.68 -216 123 C-217.32 123 -218.64 123 -220 123 C-220 122.34 -220 121.68 -220 121 C-220.99 121 -221.98 121 -223 121 C-224.02104551 120.02149805 -225.0206121 119.02019573 -226 118 C-227.485 117.505 -227.485 117.505 -229 117 C-230 116 -231 115 -232 114 C-233.485 113.505 -233.485 113.505 -235 113 C-235 112.34 -235 111.68 -235 111 C-235.66 111 -236.32 111 -237 111 C-237 110.34 -237 109.68 -237 109 C-237.680625 108.7525 -238.36125 108.505 -239.0625 108.25 C-242.56865083 106.75802092 -245.71620368 104.93164489 -249 103 C-249 102.34 -249 101.68 -249 101 C-250.98 100.505 -250.98 100.505 -253 100 C-253 99.34 -253 98.68 -253 98 C-253.598125 97.896875 -254.19625 97.79375 -254.8125 97.6875 C-257.31258286 96.90175967 -258.37535082 96.03081147 -260 94 C-260 93.34 -260 92.68 -260 92 C-260.70125 91.773125 -261.4025 91.54625 -262.125 91.3125 C-265.74128535 89.66158712 -268.08769976 87.7091165 -271 85 C-271 84.34 -271 83.68 -271 83 C-271.721875 82.773125 -272.44375 82.54625 -273.1875 82.3125 C-276.56591209 80.73590769 -278.36694293 78.6368511 -281 76 C-283.04521267 74.38098499 -285.0951847 72.80407703 -287.1875 71.25 C-296.95434663 63.81516394 -305.02301533 56.07508632 -312.453125 46.3125 C-315.45135161 42.37426475 -318.70890563 38.69353797 -322 35 C-326 30.28205128 -326 30.28205128 -326 28 C-326.99 27.67 -327.98 27.34 -329 27 C-329.6875 24.9375 -329.6875 24.9375 -330 23 C-330.66 23 -331.32 23 -332 23 C-332.33 21.68 -332.66 20.36 -333 19 C-329.44527901 21.67432815 -326.73517189 24.381501 -324.0234375 27.8984375 C-318.88037383 34.30545641 -313.21603616 40.08676213 -307.38964844 45.87109375 C-305.62719762 47.62281575 -303.87571432 49.38499428 -302.125 51.1484375 C-295.38873097 57.89257628 -288.47537065 64.07582722 -281 70 C-279.90983489 70.92298036 -278.82522866 71.85263049 -277.75 72.79296875 C-268.58823407 80.77047232 -258.8752562 87.93377944 -249 95 C-248.31534668 95.49000488 -247.63069336 95.98000977 -246.92529297 96.48486328 C-237.8967356 102.90492089 -228.60599132 108.82097704 -219.09228516 114.49829102 C-214.46499931 117.29758379 -210.74614453 120.05099565 -207 124 C-204.80614873 125.4951238 -204.80614873 125.4951238 -202.5625 126.625 C-201.78648437 127.0375 -201.01046875 127.45 -200.2109375 127.875 C-198.37787438 128.8077247 -196.53400113 129.71916926 -194.6875 130.625 C-192.2117001 131.89168832 -190.12032278 133.20588072 -188 135 C-188 135.33 -188 135.66 -188 136 C-177.65418339 139.69807913 -169.90182082 140.12150494 -159.54296875 136.265625 C-156.91238889 135.06969715 -156.91238889 135.06969715 -154.6171875 133.08203125 C-151.60161435 130.68307529 -148.39979015 129.07134848 -144.9375 127.4375 C-141.01422733 125.57301531 -137.470802 123.62535023 -134 121 C-131.89453125 120.12109375 -131.89453125 120.12109375 -129.8125 119.4375 C-127.75047087 118.79714142 -127.75047087 118.79714142 -126 118 C-125.67 117.34 -125.34 116.68 -125 116 C-124.195625 115.773125 -123.39125 115.54625 -122.5625 115.3125 C-116.64396183 113.13198594 -111.74487674 109.16933807 -106.8203125 105.27734375 C-105 104 -105 104 -103 104 C-102.6596875 103.071875 -102.6596875 103.071875 -102.3125 102.125 C-101 100 -101 100 -98.875 99.1875 C-95.19324727 97.66677605 -92.84488192 95.32970985 -89.91796875 92.671875 C-87.75777404 90.78885395 -85.48815291 89.41219489 -83 88 C-79.94689872 85.80802985 -77.54728698 83.5205224 -75.1875 80.625 C-73.04710041 78.04232396 -70.93289899 76.11036874 -68.1875 74.1875 C-63.02320936 70.50720092 -59.1464623 65.75365139 -55 61 C-52.2732834 58.14343975 -49.48112809 55.56561063 -46.4375 53.0625 C-43.26170453 50.38742391 -41.2398926 47.50916507 -39 44 C-36.37014758 41.01476212 -33.91921164 38.8598887 -30.4375 37 C-26.83673617 34.90501014 -25.38704497 33.35678199 -23 30 C-21.87932187 28.55912812 -20.75385054 27.1219782 -19.625 25.6875 C-16.36884709 21.49313353 -13.17406348 17.2566327 -10 13 C-8.3967793 10.85345074 -6.79261964 8.70762729 -5.1875 6.5625 C-4.41792969 5.53253906 -3.64835937 4.50257813 -2.85546875 3.44140625 C-1 1 -1 1 0 0 Z " fill="#250C10" transform="translate(685,617)"/>
<path d="M0 0 C4.04816928 0.62279527 6.78176188 2.53388359 10 5 C17.12800052 15.40533184 17.99820452 25.50073672 17.81054688 37.71630859 C17.81020848 39.43788857 17.81295495 41.15947144 17.81851196 42.88104248 C17.82473442 47.50921854 17.78799625 52.13612481 17.74268913 56.76404524 C17.70231705 61.62842036 17.70145198 66.49281348 17.69592285 71.35733032 C17.68126215 79.51594804 17.64131444 87.67410145 17.58300781 95.83251953 C17.50094015 107.32071514 17.46462227 118.80872135 17.43749142 130.29715991 C17.41482615 139.24761421 17.3807392 148.19803225 17.34375 157.1484375 C17.33984442 158.10328269 17.33593884 159.05812789 17.3319149 160.04190779 C17.30850265 165.53791971 17.27909493 171.0338461 17.24116135 176.52977753 C17.23029987 178.19015925 17.22099825 179.85055207 17.21341324 181.510952 C17.08241004 209.10912133 17.08241004 209.10912133 12 220 C11.34 220 10.68 220 10 220 C10.05220703 221.17755859 10.05220703 221.17755859 10.10546875 222.37890625 C10.27268962 228.86866869 9.99009401 233.24981921 7 239 C6.4740625 240.5778125 6.4740625 240.5778125 5.9375 242.1875 C5.12473299 244.62580104 4.17391143 246.7255466 3 249 C1.6984203 251.96470931 1 253.73381035 1 257 C-0.0234375 259.0859375 -0.0234375 259.0859375 -1.375 261.375 C-2.73819616 263.74345814 -3.98440741 265.96101853 -5 268.5 C-7.57533923 274.93834808 -10.79919783 280.39357522 -16 285 C-15.2986825 281.37219711 -13.77364691 278.44662823 -12.0625 275.1875 C-9.54942378 270.27507823 -9.54942378 270.27507823 -7.8125 265.0625 C-7 262 -7 262 -5.61328125 259.8046875 C-3.6211314 256.3413374 -2.52143623 252.87333895 -1.375 249.0625 C-1.1584375 248.37220703 -0.941875 247.68191406 -0.71875 246.97070312 C0.24145116 243.8441222 1.00906862 240.93475208 1.4609375 237.68359375 C2 235 2 235 3.4375 233.56640625 C17.42983647 219.53908894 12.43456513 176.42574298 12.41392052 157.7211917 C12.41054396 155.92485927 12.40689273 154.12852733 12.40297651 152.332196 C12.39525217 147.66535255 12.40245823 142.99852465 12.40713501 138.3316803 C12.41254691 130.52146151 12.40551285 122.7113287 12.39111328 114.90112305 C12.37469783 105.89389208 12.38015771 96.88686397 12.3965925 87.87963766 C12.41022252 80.09473089 12.41212253 72.30988496 12.40427649 64.52497011 C12.39962078 59.89667304 12.39891885 55.26847138 12.40888596 50.64018059 C12.41757907 46.30355252 12.41149125 41.96718651 12.39420319 37.63058662 C12.39025503 36.04598042 12.39134357 34.46135194 12.39799118 32.87675476 C12.74057355 21.02102506 12.74057355 21.02102506 9 10 C7.26681893 8.49973702 5.54449208 7.31478213 3.5859375 6.12890625 C1.31209341 4.5103325 0.68008171 2.6447622 0 0 Z " fill="#330D13" transform="translate(702,332)"/>
<path d="M0 0 C3.55472099 2.67432815 6.26482811 5.381501 8.9765625 8.8984375 C14.11962617 15.30545641 19.78396384 21.08676213 25.61035156 26.87109375 C27.37280238 28.62281575 29.12428568 30.38499428 30.875 32.1484375 C37.61126903 38.89257628 44.52462935 45.07582722 52 51 C53.09016511 51.92298036 54.17477134 52.85263049 55.25 53.79296875 C64.41176593 61.77047232 74.1247438 68.93377944 84 76 C84.68465332 76.49000488 85.36930664 76.98000977 86.07470703 77.48486328 C95.1032644 83.90492089 104.39400868 89.82097704 113.90771484 95.49829102 C118.53500069 98.29758379 122.25385547 101.05099565 126 105 C128.19385127 106.4951238 128.19385127 106.4951238 130.4375 107.625 C131.21351563 108.0375 131.98953125 108.45 132.7890625 108.875 C134.62212562 109.8077247 136.46599887 110.71916926 138.3125 111.625 C140.7882999 112.89168832 142.87967722 114.20588072 145 116 C145 116.33 145 116.66 145 117 C155.34581661 120.69807913 163.09817918 121.12150494 173.45703125 117.265625 C176.08761111 116.06969715 176.08761111 116.06969715 178.3828125 114.08203125 C181.39838565 111.68307529 184.60020985 110.07134848 188.0625 108.4375 C191.96402363 106.58335126 195.63934718 104.75724383 199 102 C199.66 102.33 200.32 102.66 201 103 C187.56756757 112.62162162 187.56756757 112.62162162 181.25 115.0625 C178.9779978 115.82841764 178.9779978 115.82841764 177.66796875 117.421875 C172.97007959 121.86671627 165.52056772 123.27400297 159.25 123.5625 C148.64480166 123.17585214 138.6076504 119.0147721 130 113 C128.23723753 111.90358298 126.46601019 110.82068358 124.6875 109.75 C123.45580078 108.99976563 123.45580078 108.99976563 122.19921875 108.234375 C119.93915545 106.87495466 119.93915545 106.87495466 117 106 C117 105.34 117 104.68 117 104 C115.68 104 114.36 104 113 104 C113 103.34 113 102.68 113 102 C112.01 102 111.02 102 110 102 C108.97895449 101.02149805 107.9793879 100.02019573 107 99 C105.515 98.505 105.515 98.505 104 98 C103 97 102 96 101 95 C99.515 94.505 99.515 94.505 98 94 C98 93.34 98 92.68 98 92 C97.34 92 96.68 92 96 92 C96 91.34 96 90.68 96 90 C95.319375 89.7525 94.63875 89.505 93.9375 89.25 C90.43134917 87.75802092 87.28379632 85.93164489 84 84 C84 83.34 84 82.68 84 82 C82.02 81.505 82.02 81.505 80 81 C80 80.34 80 79.68 80 79 C79.401875 78.896875 78.80375 78.79375 78.1875 78.6875 C75.68741714 77.90175967 74.62464918 77.03081147 73 75 C73 74.34 73 73.68 73 73 C72.29875 72.773125 71.5975 72.54625 70.875 72.3125 C67.25871465 70.66158712 64.91230024 68.7091165 62 66 C62 65.34 62 64.68 62 64 C61.278125 63.773125 60.55625 63.54625 59.8125 63.3125 C56.43408791 61.73590769 54.63305707 59.6368511 52 57 C49.95478733 55.38098499 47.9048153 53.80407703 45.8125 52.25 C36.04565337 44.81516394 27.97698467 37.07508632 20.546875 27.3125 C17.54864839 23.37426475 14.29109437 19.69353797 11 16 C7 11.28205128 7 11.28205128 7 9 C6.01 8.67 5.02 8.34 4 8 C3.3125 5.9375 3.3125 5.9375 3 4 C2.34 4 1.68 4 1 4 C0.67 2.68 0.34 1.36 0 0 Z " fill="#3F0E16" transform="translate(352,636)"/>
<path d="M0 0 C0.33 0 0.66 0 1 0 C1.56541001 5.72589822 -0.25150025 9.26407054 -2.9375 14.125 C-3.34137939 14.87128662 -3.74525879 15.61757324 -4.16137695 16.38647461 C-7.87171006 23.07915953 -12.21558704 29.02629273 -17 35 C-18.0473785 36.39155252 -19.08968873 37.78694629 -20.125 39.1875 C-23.36402814 43.50023912 -26.65195575 47.77129105 -30 52 C-30.51691406 52.66644531 -31.03382813 53.33289063 -31.56640625 54.01953125 C-34.72268449 57.93397554 -37.38610152 59.84030284 -42 62 C-44.9421293 64.59187581 -47.02302704 67.03486951 -49.1875 70.3125 C-49.785625 71.199375 -50.38375 72.08625 -51 73 C-51.66 73 -52.32 73 -53 73 C-53.495 74.485 -53.495 74.485 -54 76 C-54.70125 76.556875 -55.4025 77.11375 -56.125 77.6875 C-58.52185156 79.61540234 -60.27416187 81.37163391 -62.25 83.6875 C-64.95742781 86.83828389 -67.73309859 89.89182595 -70.625 92.875 C-71.33914063 93.61492187 -72.05328125 94.35484375 -72.7890625 95.1171875 C-75.11343219 97.09659773 -77.1710745 97.92712519 -80 99 C-81.13350534 101.01669827 -81.13350534 101.01669827 -82 103 C-82.99 103.33 -83.98 103.66 -85 104 C-85.268125 104.5775 -85.53625 105.155 -85.8125 105.75 C-88.12616964 110.13379511 -92.30788371 112.69619031 -96.5625 115 C-100.06609612 116.8424574 -100.06609612 116.8424574 -102.625 119.625 C-105.10517343 122.10517343 -106.81045364 122.72418146 -110 124 C-111.12364253 125.15669084 -112.24443529 126.3165362 -113.33984375 127.5 C-116.41772203 130.28095356 -120.04387867 132.2947081 -123.57421875 134.44921875 C-126.05787061 135.91460502 -126.05787061 135.91460502 -128 138 C-130.625 138.125 -130.625 138.125 -133 138 C-133.33 138.99 -133.66 139.98 -134 141 C-137.0625 142.1875 -137.0625 142.1875 -140 143 C-138.625 141.5 -138.625 141.5 -137 140 C-136.34 140 -135.68 140 -135 140 C-134.67 139.01 -134.34 138.02 -134 137 C-130.88190776 134.62431068 -127.81528452 132.8661739 -124.1875 131.4375 C-123.135625 130.963125 -122.08375 130.48875 -121 130 C-120.67 129.01 -120.34 128.02 -120 127 C-118.37501495 125.93360356 -116.69403834 124.95289657 -115 124 C-113.45003229 123.0129153 -111.90894529 122.01180431 -110.375 121 C-109.61960937 120.505 -108.86421875 120.01 -108.0859375 119.5 C-105.99407662 118.08142504 -105.99407662 118.08142504 -104.390625 116.38671875 C-103 115 -103 115 -100.375 113.8125 C-94.59670743 110.70934288 -90.05222602 106.05222602 -85.4375 101.4375 C-83.47078494 99.47078494 -81.48587789 97.66103808 -79.3828125 95.84765625 C-74.9683254 92.00119688 -70.69311109 88.02068595 -66.4375 84 C-65.72142578 83.32710937 -65.00535156 82.65421875 -64.26757812 81.9609375 C-55.84147816 74.12678779 -55.84147816 74.12678779 -48.1875 65.5625 C-47.465625 64.716875 -46.74375 63.87125 -46 63 C-45.34 63 -44.68 63 -44 63 C-43.67 62.01 -43.34 61.02 -43 60 C-42.34 60 -41.68 60 -41 60 C-40.67 59.01 -40.34 58.02 -40 57 C-38.5228381 55.78544466 -37.04365416 54.57310831 -35.546875 53.3828125 C-33.17850981 51.26563756 -31.69057773 48.67220351 -30 46 C-29.11853419 44.92555055 -28.2224961 43.8628955 -27.3125 42.8125 C-24.85717435 40.1686089 -24.85717435 40.1686089 -24 37 C-23.38640625 36.40703125 -22.7728125 35.8140625 -22.140625 35.203125 C-19.6102565 32.59887713 -18.31329007 30.01869742 -16.75 26.75 C-16.22921875 25.67234375 -15.7084375 24.5946875 -15.171875 23.484375 C-14.78515625 22.66453125 -14.3984375 21.8446875 -14 21 C-13.34 21 -12.68 21 -12 21 C-11.731875 20.113125 -11.46375 19.22625 -11.1875 18.3125 C-10.0749365 15.2090334 -8.89804222 12.68889315 -7 10 C-6.34 10 -5.68 10 -5 10 C-4.9175 9.46375 -4.835 8.9275 -4.75 8.375 C-3.73078583 5.14748846 -1.98040697 2.72305958 0 0 Z " fill="#56101C" transform="translate(693,595)"/>
<path d="M0 0 C2 1 2 1 3.60073853 4.54908752 C5.80010776 11.59960961 5.41883152 18.90902086 5.38818359 26.21459961 C5.39225482 27.84860076 5.39759978 29.48259916 5.40411377 31.11659241 C5.41774612 35.53922089 5.41250072 39.96163844 5.40297651 44.38427043 C5.39533683 49.04325949 5.40243944 53.70223148 5.40713501 58.36122131 C5.41258929 66.2017029 5.40541918 74.04209968 5.39111328 81.88256836 C5.37488429 90.87945061 5.38000508 99.87612781 5.3965925 108.87300485 C5.41033344 116.64339733 5.41206343 124.41372903 5.40427649 132.18412977 C5.39965588 136.80372012 5.3988147 141.4232152 5.40888596 146.042799 C5.53661721 213.99591646 5.53661721 213.99591646 -3.625 224.94140625 C-4.07875 225.29074219 -4.5325 225.64007812 -5 226 C-5.29673511 219.94816544 -3.97154278 215.16789323 -1.953125 209.57617188 C2.28278134 197.10516526 2.29310656 184.14277581 2.25878906 171.13769531 C2.26150577 169.38832962 2.26507048 167.63896508 2.26940918 165.88960266 C2.27845199 161.18120369 2.27502345 156.47289331 2.26865101 151.76449299 C2.26355191 146.81644278 2.26829295 141.86839966 2.27142334 136.92034912 C2.2750503 128.61892345 2.27029593 120.31753351 2.26074219 112.01611328 C2.24984573 102.43774729 2.25339699 92.85946638 2.264395 83.28110242 C2.27348703 75.03019398 2.27474422 66.77931106 2.26951766 58.52839923 C2.26641034 53.612071 2.26595474 48.69578271 2.27259064 43.77945709 C2.27839193 39.15987369 2.27431651 34.54039954 2.26280212 29.92082787 C2.260171 28.23183307 2.26089398 26.54282899 2.26532745 24.85383797 C2.28547528 16.39485445 2.23562562 8.23339214 0 0 Z " fill="#4F101B" transform="translate(710,341)"/>
<path d="M0 0 C2.472212 3.70831801 2.24911808 5.55289551 2.24723816 9.98184204 C2.24965257 10.69676044 2.25206699 11.41167884 2.25455457 12.14826143 C2.26020217 14.55026777 2.2515203 16.9520094 2.24291992 19.35400391 C2.2439926 21.07381258 2.24593107 22.79362091 2.24867249 24.51342773 C2.25352844 29.19142668 2.24585403 33.86933053 2.23571944 38.54731798 C2.22694238 43.44384689 2.22869638 48.34037279 2.2290802 53.23690796 C2.22814283 61.46703686 2.21945224 69.69712896 2.20581055 77.92724609 C2.19011557 87.43097 2.18481135 96.93465349 2.1855461 106.43838942 C2.186223 116.56215348 2.17926993 126.68590202 2.1700995 136.80966139 C2.16797233 139.72165581 2.16725886 142.63364772 2.16686058 145.54564285 C2.16585194 150.13386246 2.1597129 154.72204846 2.14969444 159.31025696 C2.1467865 160.98998687 2.1455406 162.66972065 2.14612198 164.34945297 C2.15205915 191.95987326 2.15205915 191.95987326 -3 203 C-3.33 203 -3.66 203 -4 203 C-4.05449838 201.27119018 -4.09301688 199.54187288 -4.125 197.8125 C-4.15980469 196.36810547 -4.15980469 196.36810547 -4.1953125 194.89453125 C-4 192 -4 192 -3.02605343 189.61438465 C0.63581093 180.28395244 -0.8297084 168.51620901 -0.79467773 158.5949707 C-0.7850813 156.85937781 -0.77507024 155.12378717 -0.76467896 153.38819885 C-0.73781486 148.70719586 -0.71670604 144.02618298 -0.69667697 139.34514642 C-0.67470232 134.4417648 -0.64737017 129.53841302 -0.62062073 124.63505554 C-0.57084818 115.36353802 -0.52585254 106.0920038 -0.48259836 96.82045382 C-0.43309345 86.25931585 -0.37822477 75.69820784 -0.32291877 65.13709891 C-0.20933594 43.42476056 -0.10244595 21.71239357 0 0 Z " fill="#210B0F" transform="translate(717,349)"/>
<path d="M0 0 C0.99 0.99 0.99 0.99 2 2 C0.8553125 3.5778125 0.8553125 3.5778125 -0.3125 5.1875 C-1.81384695 7.28181591 -3.19655062 9.33577397 -4.5 11.5625 C-5.9968727 13.99491814 -7.70331719 16.06570278 -9.62109375 18.1796875 C-11.19270567 20.16449134 -11.19270567 20.16449134 -12.8125 23.27734375 C-14.98330434 27.146265 -17.63496267 30.36994068 -20.5625 33.6875 C-21.36228271 34.60402344 -21.36228271 34.60402344 -22.17822266 35.5390625 C-23.77844585 37.36571894 -25.38824841 39.18351654 -27 41 C-27.81082031 41.92425781 -28.62164063 42.84851563 -29.45703125 43.80078125 C-35.36922489 50.40066139 -41.58140625 56.70809109 -47.82110596 62.99633789 C-48.80678494 63.99012497 -49.79098529 64.98538104 -50.77362061 65.98217773 C-52.17311646 67.39971124 -53.58060339 68.80934129 -54.98828125 70.21875 C-55.80852783 71.04310547 -56.62877441 71.86746094 -57.47387695 72.71679688 C-60.15420445 75.13937567 -62.97190272 77.03794596 -66 79 C-67.3938957 80.31323627 -68.75207101 81.66596479 -70.0625 83.0625 C-72.84214488 86.02404393 -75.50871957 87.94291873 -79 90 C-80.89965994 91.46864466 -82.77411514 92.97034309 -84.625 94.5 C-86.03652344 95.66015625 -86.03652344 95.66015625 -87.4765625 96.84375 C-89.41544911 98.5005076 -91.24095275 100.15831294 -93 102 C-93.66 101.67 -94.32 101.34 -95 101 C-88.62518751 94.2335608 -81.611963 87.92682267 -73.75 82.9375 C-70.5343538 80.67193109 -68.30802814 78.07036227 -65.78125 75.078125 C-60.18184888 68.54549037 -53.70810608 62.71597645 -46.9609375 57.390625 C-42.96435103 54.15014948 -40.26357312 51.06175761 -37.625 46.625 C-34.51253008 41.40892972 -30.83562771 37.90455695 -26.23046875 33.99609375 C-23.47203453 31.52751251 -21.87426419 29.17183171 -20 26 C-18.67744688 24.32476605 -17.34294481 22.65893182 -16 21 C-13.98111751 18.34749901 -11.99306796 15.67192953 -10 13 C-8.39675807 10.85346679 -6.79260677 8.70763674 -5.1875 6.5625 C-4.41792969 5.53253906 -3.64835938 4.50257813 -2.85546875 3.44140625 C-1 1 -1 1 0 0 Z " fill="#250C10" transform="translate(685,617)"/>
<path d="M0 0 C0.82564453 0.53173828 0.82564453 0.53173828 1.66796875 1.07421875 C6.49241331 4.16335922 11.33347781 7.21070231 16.23046875 10.18359375 C17.6213269 11.03207886 17.6213269 11.03207886 19.0402832 11.89770508 C20.90641747 13.03480782 22.77597504 14.16631449 24.64916992 15.29174805 C29.35116873 18.16430317 33.18934987 20.97417654 37 25 C39.19385127 26.4951238 39.19385127 26.4951238 41.4375 27.625 C42.21351563 28.0375 42.98953125 28.45 43.7890625 28.875 C45.62212562 29.8077247 47.46599887 30.71916926 49.3125 31.625 C51.7882999 32.89168832 53.87967722 34.20588072 56 36 C56 36.33 56 36.66 56 37 C66.34581661 40.69807913 74.09817918 41.12150494 84.45703125 37.265625 C87.08761111 36.06969715 87.08761111 36.06969715 89.3828125 34.08203125 C92.39838565 31.68307529 95.60020985 30.07134848 99.0625 28.4375 C102.96402363 26.58335126 106.63934718 24.75724383 110 22 C110.66 22.33 111.32 22.66 112 23 C98.56756757 32.62162162 98.56756757 32.62162162 92.25 35.0625 C89.9779978 35.82841764 89.9779978 35.82841764 88.66796875 37.421875 C83.97007959 41.86671627 76.52056772 43.27400297 70.25 43.5625 C59.77581375 43.18062863 49.43251789 39.11256679 41 33 C39.948125 32.34 38.89625 31.68 37.8125 31 C34.86715298 28.90553101 32.55227893 26.55227893 30 24 C26.17639242 20.92698513 22.57852899 18.78053905 18 17 C17 16 16 15 15 14 C13.9790625 13.7834375 13.9790625 13.7834375 12.9375 13.5625 C12.298125 13.376875 11.65875 13.19125 11 13 C10.58814453 12.10474609 10.58814453 12.10474609 10.16796875 11.19140625 C8.69007016 8.41849284 6.91233778 7.20349421 4.375 5.375 C2.88198574 4.29645027 1.41350645 3.18083049 0 2 C0 1.34 0 0.68 0 0 Z " fill="#510F1B" transform="translate(441,716)"/>
<path d="M0 0 C0.33 0 0.66 0 1 0 C1.56541001 5.72589822 -0.25150025 9.26407054 -2.9375 14.125 C-3.34137939 14.87128662 -3.74525879 15.61757324 -4.16137695 16.38647461 C-7.87171006 23.07915953 -12.21558704 29.02629273 -17 35 C-18.0473785 36.39155252 -19.08968873 37.78694629 -20.125 39.1875 C-24.37738604 44.84951677 -28.68512259 50.4711375 -33.1875 55.9375 C-33.63480469 56.48277344 -34.08210937 57.02804687 -34.54296875 57.58984375 C-36.2148456 59.20793368 -37.88312104 60.0616832 -40 61 C-38.80500286 57.30637247 -37.10822292 54.73033713 -34.5703125 51.8125 C-32.58168364 49.51716719 -30.66301418 47.17119849 -28.75 44.8125 C-27.72132813 43.55373047 -27.72132813 43.55373047 -26.671875 42.26953125 C-24.83597314 40.02136156 -24.83597314 40.02136156 -24 37 C-23.38640625 36.40703125 -22.7728125 35.8140625 -22.140625 35.203125 C-19.6102565 32.59887713 -18.31329007 30.01869742 -16.75 26.75 C-16.22921875 25.67234375 -15.7084375 24.5946875 -15.171875 23.484375 C-14.78515625 22.66453125 -14.3984375 21.8446875 -14 21 C-13.34 21 -12.68 21 -12 21 C-11.731875 20.113125 -11.46375 19.22625 -11.1875 18.3125 C-10.0749365 15.2090334 -8.89804222 12.68889315 -7 10 C-6.34 10 -5.68 10 -5 10 C-4.9175 9.46375 -4.835 8.9275 -4.75 8.375 C-3.73078583 5.14748846 -1.98040697 2.72305958 0 0 Z " fill="#430E17" transform="translate(693,595)"/>
<path d="M0 0 C0.99 0.495 0.99 0.495 2 1 C-8.53144367 16.35709078 -8.53144367 16.35709078 -16 22 C-16.66 22 -17.32 22 -18 22 C-18.22945312 22.56847656 -18.45890625 23.13695312 -18.6953125 23.72265625 C-20.34004816 26.59355712 -22.36492069 28.28866356 -24.875 30.4375 C-27.60696191 32.78209418 -29.96294597 34.95299018 -32.1953125 37.78515625 C-32.79085937 38.51605469 -33.38640625 39.24695313 -34 40 C-34.66 40 -35.32 40 -36 40 C-36.22945312 40.5878125 -36.45890625 41.175625 -36.6953125 41.78125 C-38.34037561 44.57884236 -40.16690021 45.73210102 -42.875 47.5 C-45.52216493 49.23843667 -47.8125207 50.8044963 -50.0078125 53.09375 C-52.23661231 55.22640551 -54.15164496 55.89106429 -57 57 C-58.94675558 58.59300743 -58.94675558 58.59300743 -60.8125 60.5 C-68.12659649 67.24577142 -77.069666 72.6336226 -86 77 C-81.6269457 72.18964027 -76.53722562 68.40073857 -71 65 C-70.34 65 -69.68 65 -69 65 C-68.773125 64.38125 -68.54625 63.7625 -68.3125 63.125 C-67 61 -67 61 -64.875 60.1875 C-61.19324727 58.66677605 -58.84488192 56.32970985 -55.91796875 53.671875 C-53.75777404 51.78885395 -51.48815291 50.41219489 -49 49 C-45.94689872 46.80802985 -43.54728698 44.5205224 -41.1875 41.625 C-39.04710041 39.04232396 -36.93289899 37.11036874 -34.1875 35.1875 C-29.02320936 31.50720092 -25.1464623 26.75365139 -21 22 C-18.2732834 19.14343975 -15.48112809 16.56561063 -12.4375 14.0625 C-9.26170453 11.38742391 -7.2398926 8.50916507 -5 5 C-3.3707726 3.29671681 -1.71358643 1.61838719 0 0 Z " fill="#3D0E16" transform="translate(651,656)"/>
<path d="M0 0 C1.65 0 3.3 0 5 0 C5 0.66 5 1.32 5 2 C1.32344412 4.98720165 -1.8919451 7.09558235 -6.375 8.625 C-7.57125 9.07875 -8.7675 9.5325 -10 10 C-10.33 10.99 -10.66 11.98 -11 13 C-13.29120128 14.12509117 -15.50081556 15.09013291 -17.875 16 C-21.84683302 17.54058978 -25.02879065 18.87009104 -28 22 C-30.63440181 22.94193717 -33.2529848 23.41457053 -36 24 C-36 24.66 -36 25.32 -36 26 C-41.96674616 27.32594359 -47.92583615 27.0884587 -54 27 C-54 26.67 -54 26.34 -54 26 C-53.33355469 25.97421875 -52.66710937 25.9484375 -51.98046875 25.921875 C-45.541082 25.52560505 -40.19732215 24.25171811 -34.21484375 21.83984375 C-32 21 -32 21 -30 21 C-29.835 20.401875 -29.67 19.80375 -29.5 19.1875 C-27.58153995 16.38974576 -25.60874512 16.07433127 -22.48046875 15.04296875 C-18.24210644 13.2608542 -14.6229808 10.53539498 -10.8515625 7.93359375 C-8.544241 6.36904013 -6.25633658 4.95754464 -3.8125 3.625 C-0.91941742 2.29777011 -0.91941742 2.29777011 0 0 Z " fill="#3A0E15" transform="translate(560,733)"/>
<path d="M0 0 C0.33 0 0.66 0 1 0 C1.55027688 5.64033805 0.04948489 8.42577266 -3 13 C-3.99 13.495 -3.99 13.495 -5 14 C-6.28972718 16.28115011 -7.43204032 18.61628866 -8.5859375 20.96875 C-10 23 -10 23 -12.1640625 23.78125 C-12.76992188 23.8534375 -13.37578125 23.925625 -14 24 C-14.20625 24.99 -14.4125 25.98 -14.625 27 C-15.95424662 31.71978872 -18.75393919 35.38346486 -22 39 C-22.99 39.495 -22.99 39.495 -24 40 C-24 37 -24 37 -22.203125 35.203125 C-21.47609375 34.47609375 -20.7490625 33.7490625 -20 33 C-18.84526555 30.95537846 -17.76312962 28.86836193 -16.75 26.75 C-16.22921875 25.67234375 -15.7084375 24.5946875 -15.171875 23.484375 C-14.78515625 22.66453125 -14.3984375 21.8446875 -14 21 C-13.34 21 -12.68 21 -12 21 C-11.731875 20.113125 -11.46375 19.22625 -11.1875 18.3125 C-10.0749365 15.2090334 -8.89804222 12.68889315 -7 10 C-6.34 10 -5.68 10 -5 10 C-4.9175 9.46375 -4.835 8.9275 -4.75 8.375 C-3.73078583 5.14748846 -1.98040697 2.72305958 0 0 Z " fill="#440E17" transform="translate(693,595)"/>
<path d="M0 0 C0.82564453 0.53173828 0.82564453 0.53173828 1.66796875 1.07421875 C6.51874438 4.18021927 11.38892002 7.24542375 16.30078125 10.25390625 C17.23704346 10.82858643 18.17330566 11.4032666 19.13793945 11.99536133 C21.0314805 13.15623137 22.92712477 14.3136784 24.82495117 15.4675293 C26.14910034 16.28024292 26.14910034 16.28024292 27.5 17.109375 C28.2940625 17.59374023 29.088125 18.07810547 29.90625 18.57714844 C31.85769124 19.90329111 33.40347452 21.27171 35 23 C28.90402005 23.78153589 24.93494724 21.2168545 20 18 C18.33333333 16.66666667 16.66666667 15.33333333 15 14 C14.278125 13.835 13.55625 13.67 12.8125 13.5 C12.214375 13.335 11.61625 13.17 11 13 C10.72800781 12.40445313 10.45601563 11.80890625 10.17578125 11.1953125 C8.69133307 8.42368499 6.91410585 7.20476834 4.375 5.375 C2.88198574 4.29645027 1.41350645 3.18083049 0 2 C0 1.34 0 0.68 0 0 Z " fill="#5E111E" transform="translate(441,716)"/>
<path d="M0 0 C0.99 0 1.98 0 3 0 C3 0.66 3 1.32 3 2 C3.556875 2.12375 4.11375 2.2475 4.6875 2.375 C7.28715346 3.07760904 9.598062 3.76657238 12 5 C12.8125 7.125 12.8125 7.125 13 9 C15.97 9.495 15.97 9.495 19 10 C19.33 10.99 19.66 11.98 20 13 C21.99054876 13.69437747 23.99255385 14.35610218 26 15 C30.2643472 17.52379732 33.60230818 20.40244396 37 24 C34.61435923 23.42415568 32.33317216 22.77772405 30 22 C30 21.34 30 20.68 30 20 C28.68 20 27.36 20 26 20 C26 19.34 26 18.68 26 18 C25.01 18 24.02 18 23 18 C21.97895449 17.02149805 20.9793879 16.02019573 20 15 C19.01 14.67 18.02 14.34 17 14 C16 13 15 12 14 11 C13.01 10.67 12.02 10.34 11 10 C11 9.34 11 8.68 11 8 C10.34 8 9.68 8 9 8 C9 7.34 9 6.68 9 6 C8.2575 5.7525 7.515 5.505 6.75 5.25 C3.79875938 3.90852699 2.15185026 2.39094474 0 0 Z " fill="#360D14" transform="translate(439,720)"/>
<path d="M0 0 C5.69559933 4.25424023 11.35651913 8.5519176 17 12.875 C17.77472656 13.46796875 18.54945313 14.0609375 19.34765625 14.671875 C21.23203494 16.11423894 23.11614525 17.55695186 25 19 C22 20 22 20 18.625 18.375 C15.25000928 16.30509925 12.74305222 13.87063604 10 11 C7.35158818 8.64585616 4.68688702 6.31196756 2.01171875 3.98828125 C1.34785156 3.33214844 0.68398438 2.67601562 0 2 C0 1.34 0 0.68 0 0 Z " fill="#54101B" transform="translate(404,688)"/>
<path d="M0 0 C1.75387885 4.15335727 0.1314043 7.82540651 -1.1875 11.875 C-1.39697266 12.56980469 -1.60644531 13.26460937 -1.82226562 13.98046875 C-3.27721853 18.56551323 -5.15854978 22.11810442 -8 26 C-10.02626758 19.92119726 -6.15031766 12.5605941 -3.6171875 6.921875 C-2.45121323 4.58992646 -1.2577615 2.28355878 0 0 Z " fill="#53101B" transform="translate(703,569)"/>
<path d="M0 0 C4.75 0.875 4.75 0.875 7 2 C7 2.66 7 3.32 7 4 C9.31 4.66 11.62 5.32 14 6 C14 6.66 14 7.32 14 8 C15.010625 8.0825 16.02125 8.165 17.0625 8.25 C21.37786916 8.84006068 24.34738197 10.68916002 28 13 C25.05179212 14.47410394 23.45709791 13.39716412 20.375 12.375 C15.034573 10.52245953 10.60564338 8.23418513 6 5 C4.83382144 4.24924127 3.66719554 3.49917667 2.5 2.75 C1.675 2.1725 0.85 1.595 0 1 C0 0.67 0 0.34 0 0 Z " fill="#3B0E15" transform="translate(476,744)"/>
<path d="M0 0 C4.2054765 0.52442393 6.84842173 3.08128319 9.9375 5.75 C10.44990234 6.18054688 10.96230469 6.61109375 11.49023438 7.0546875 C20.24123896 14.48247792 20.24123896 14.48247792 22 18 C17.39860359 16.51131293 14.49772906 14.25370145 11 11 C11 10.34 11 9.68 11 9 C10.278125 8.773125 9.55625 8.54625 8.8125 8.3125 C4.9201137 6.49605306 1.93862514 3.87725027 0 0 Z " fill="#330D14" transform="translate(403,691)"/>
<path d="M0 0 C1.875 0.1875 1.875 0.1875 4 1 C4.2976123 1.75949951 4.59522461 2.51899902 4.90185547 3.30151367 C6.10839252 6.2663545 7.41812419 7.76531171 9.6953125 9.98828125 C10.76845703 11.04692383 10.76845703 11.04692383 11.86328125 12.12695312 C12.98283203 13.20879883 12.98283203 13.20879883 14.125 14.3125 C14.87910156 15.05306641 15.63320313 15.79363281 16.41015625 16.55664062 C18.26683535 18.37806633 20.13015852 20.19210536 22 22 C16.66661036 22 13.07642847 17.04168002 9.41015625 13.44628906 C0 3.79501385 0 3.79501385 0 0 Z " fill="#240C10" transform="translate(373,662)"/>
<path d="M0 0 C1.60080151 4.00200378 0.29279692 7.04556236 -1 11 C-1.66 11 -2.32 11 -3 11 C-3.103125 12.19625 -3.20625 13.3925 -3.3125 14.625 C-3.78891352 18.5624176 -5.01130716 21.54140375 -7 25 C-8.43737253 21.19733091 -7.50073987 18.85372944 -6.125 15.125 C-4.96467433 11.95236129 -4.01200674 9.07326743 -3.46484375 5.734375 C-2.95753649 2.75021467 -2.3406179 1.83178792 0 0 Z " fill="#3C0E16" transform="translate(707,564)"/>
<path d="M0 0 C0.33 0.66 0.66 1.32 1 2 C0.22265625 3.9453125 0.22265625 3.9453125 -0.9375 6.125 C-1.31777344 6.84945312 -1.69804688 7.57390625 -2.08984375 8.3203125 C-2.39019531 8.87460937 -2.69054687 9.42890625 -3 10 C-3.66 10 -4.32 10 -5 10 C-5.20625 10.99 -5.4125 11.98 -5.625 13 C-6.95424662 17.71978872 -9.75393919 21.38346486 -13 25 C-13.66 25.33 -14.32 25.66 -15 26 C-15 23 -15 23 -13.203125 21.203125 C-12.47609375 20.47609375 -11.7490625 19.7490625 -11 19 C-9.84526555 16.95537846 -8.76312962 14.86836193 -7.75 12.75 C-7.22921875 11.67234375 -6.7084375 10.5946875 -6.171875 9.484375 C-5.78515625 8.66453125 -5.3984375 7.8446875 -5 7 C-4.34 7 -3.68 7 -3 7 C-2.690625 6.030625 -2.38125 5.06125 -2.0625 4.0625 C-1 1 -1 1 0 0 Z " fill="#58101C" transform="translate(684,609)"/>
<path d="M0 0 C0.99 0.33 1.98 0.66 3 1 C-0.62025316 14.36708861 -0.62025316 14.36708861 -4 20 C-4.66 20.33 -5.32 20.66 -6 21 C-5.67 18.69 -5.34 16.38 -5 14 C-4.34 14 -3.68 14 -3 14 C-2.86722656 13.24074219 -2.73445312 12.48148438 -2.59765625 11.69921875 C-2.42105469 10.70535156 -2.24445312 9.71148438 -2.0625 8.6875 C-1.88847656 7.70136719 -1.71445312 6.71523438 -1.53515625 5.69921875 C-1 3 -1 3 0 0 Z " fill="#250C10" transform="translate(709,561)"/>
<path d="M0 0 C3.03926059 1.45355941 5.86253132 3.1024377 8.6875 4.9375 C9.47511719 5.44152344 10.26273437 5.94554687 11.07421875 6.46484375 C13 8 13 8 14 11 C13.01 11 12.02 11 11 11 C11 10.34 11 9.68 11 9 C9.68 8.67 8.36 8.34 7 8 C7 7.34 7 6.68 7 6 C6.401875 5.896875 5.80375 5.79375 5.1875 5.6875 C2.68741714 4.90175967 1.62464918 4.03081147 0 2 C0 1.34 0 0.68 0 0 Z " fill="#2F0D13" transform="translate(425,709)"/>
<path d="M0 0 C0.70703125 1.70703125 0.70703125 1.70703125 1 4 C-0.36328125 6.32421875 -0.36328125 6.32421875 -2.3125 8.6875 C-2.94800781 9.47511719 -3.58351563 10.26273438 -4.23828125 11.07421875 C-6 13 -6 13 -8 14 C-7.67 12.68 -7.34 11.36 -7 10 C-6.34 10 -5.68 10 -5 10 C-4.9175 9.46375 -4.835 8.9275 -4.75 8.375 C-3.73623902 5.1647569 -1.92839451 2.73707608 0 0 Z " fill="#53101B" transform="translate(693,595)"/>
<path d="M0 0 C4.04420651 1.77945087 7.46078487 4.39529673 11 7 C10.01 7.33 9.02 7.66 8 8 C5.95703125 6.85546875 5.95703125 6.85546875 3.8125 5.1875 C3.09707031 4.64480469 2.38164062 4.10210938 1.64453125 3.54296875 C1.10183594 3.03378906 0.55914062 2.52460937 0 2 C0 1.34 0 0.68 0 0 Z " fill="#5E111D" transform="translate(429,708)"/>
<path d="M0 0 C3.36720387 1.39332574 4.9859524 2.9789286 7 6 C6.67 6.66 6.34 7.32 6 8 C4.125 7.375 4.125 7.375 2 6 C0.75 2.875 0.75 2.875 0 0 Z " fill="#5C111D" transform="translate(704,337)"/>
<path d="M0 0 C0.75 1.625 0.75 1.625 1 4 C-0.9375 7.25 -0.9375 7.25 -3 10 C-3.75 8.375 -3.75 8.375 -4 6 C-2.0625 2.75 -2.0625 2.75 0 0 Z " fill="#360D14" transform="translate(698,589)"/>
</svg>
