<?xml version="1.0" encoding="UTF-8"?>
<svg version="1.1" xmlns="http://www.w3.org/2000/svg" width="1024" height="1024">
<path d="M0 0 C337.92 0 675.84 0 1024 0 C1024 337.92 1024 675.84 1024 1024 C686.08 1024 348.16 1024 0 1024 C0 686.08 0 348.16 0 0 Z " fill="#0A0A0A" transform="translate(0,0)"/>
<path d="M0 0 C3.01508928 1.77908995 5.62362145 3.95345663 8.3125 6.1875 C14.91441929 11.62853134 22.27334095 15.52548452 29.8125 19.5 C30.77567139 20.01046875 30.77567139 20.01046875 31.75830078 20.53125 C55.88183591 33.21546051 81.66809693 42.89404424 107.8125 50.5 C108.69776367 50.75990723 109.58302734 51.01981445 110.49511719 51.28759766 C138.778609 59.70701212 138.778609 59.70701212 167.8125 64.5625 C175.23966907 65.36776149 181.43938787 66.95373016 186.71484375 72.5 C190.91019489 77.87004945 191.93734477 81.68834393 191.94621277 88.54190063 C191.94847833 89.26342516 191.95074388 89.98494969 191.95307809 90.7283386 C191.95942233 93.15305568 191.95858841 95.57771693 191.95776367 98.00244141 C191.96075522 99.73882622 191.96415774 101.47521036 191.96794128 103.21159363 C191.97679385 107.93761687 191.97912015 112.663622 191.97975707 117.38965273 C191.98046778 120.34752242 191.98260267 123.30538752 191.98525429 126.26325607 C191.99451744 136.5986841 191.99858866 146.93409921 191.99780273 157.26953125 C191.99720424 166.87308469 192.00770857 176.47658154 192.0235464 186.08012068 C192.03668118 194.34195232 192.04198403 202.60376563 192.04134732 210.86560762 C192.04109373 215.79183015 192.04386654 220.71800258 192.05452538 225.64421463 C192.06430459 230.29157121 192.06421923 234.93883091 192.05700874 239.58619118 C192.05597442 241.27868989 192.05825592 242.97119495 192.0643692 244.66368294 C192.20590427 286.61737131 178.21609929 324.8899363 154.8125 359.5 C154.37405762 360.15081543 153.93561523 360.80163086 153.48388672 361.47216797 C147.48270306 370.30422934 140.82856547 378.45985044 133.8125 386.5 C133.20921875 387.20382812 132.6059375 387.90765625 131.984375 388.6328125 C122.07407842 400.13068086 111.74851056 411.5656241 100.20703125 421.4453125 C98.31354069 423.07006949 96.44045011 424.71153005 94.57421875 426.3671875 C85.31882342 434.54247381 75.72297439 442.13684989 65.8125 449.5 C65.11850098 450.02029785 64.42450195 450.5405957 63.70947266 451.07666016 C5.37493945 494.70866252 5.37493945 494.70866252 -14.1875 492.5 C-25.77983308 489.85344849 -36.42816837 482.97208869 -46.4375 476.8125 C-47.43620117 476.20019531 -48.43490234 475.58789062 -49.46386719 474.95703125 C-57.9061966 469.74337011 -66.13703156 464.29879017 -74.1875 458.5 C-75.34789795 457.6642041 -75.34789795 457.6642041 -76.53173828 456.81152344 C-85.98159176 449.97657115 -95.28415688 443.03771756 -104.1875 435.5 C-105.23001137 434.63096145 -106.27300528 433.76250152 -107.31640625 432.89453125 C-124.66982375 418.40882859 -142.39284127 402.8932519 -156.26953125 384.97265625 C-158.4170981 382.20400082 -160.70529408 379.5852376 -163 376.9375 C-184.86381517 350.7009218 -201.24996823 318.5414896 -209 285.3125 C-209.1949707 284.48322998 -209.38994141 283.65395996 -209.59082031 282.79956055 C-212.71794424 268.51103089 -213.48841599 254.20480967 -213.47802734 239.63256836 C-213.48403119 237.91892205 -213.49084089 236.20527841 -213.49838257 234.49163818 C-213.51584131 229.89513202 -213.52072874 225.29870054 -213.52201414 220.70216441 C-213.52344554 217.8236832 -213.52773317 214.94522044 -213.53300858 212.06674385 C-213.55142785 202.00745582 -213.55968765 191.94822036 -213.55810547 181.88891602 C-213.55689975 172.53475566 -213.57810688 163.1808244 -213.6095928 153.82672209 C-213.63575492 145.76516356 -213.6464731 137.70368005 -213.64519465 129.64207941 C-213.64468588 124.83980956 -213.65032509 120.03774475 -213.67155075 115.2355175 C-213.69093721 110.72825826 -213.69105497 106.22140011 -213.67651749 101.71412659 C-213.67443023 100.06459528 -213.67912537 98.41503876 -213.6912384 96.76555061 C-213.75638871 87.27746816 -213.77771305 79.83356739 -207.2578125 72.2578125 C-206.61585938 71.71898437 -205.97390625 71.18015625 -205.3125 70.625 C-204.67570312 70.07070312 -204.03890625 69.51640625 -203.3828125 68.9453125 C-198.18497995 65.52325192 -192.39443191 65.02238374 -186.375 64.25 C-130.73489497 56.36379859 -66.14337205 35.46968109 -21.7734375 0.59375 C-16.1551664 -3.28091972 -6.01662455 -2.79871675 0 0 Z " fill="#D52537" transform="translate(513.1875,172.5)"/>
<path d="M0 0 C14.19 0 28.38 0 43 0 C46.37503822 10.12511467 46.37503822 10.12511467 47.63807678 15.22277832 C47.92539169 16.37488297 48.2127066 17.52698761 48.50872803 18.71400452 C48.81272522 19.94855881 49.11672241 21.1831131 49.42993164 22.45507812 C49.76179362 23.79161568 50.09397112 25.12807492 50.42643738 26.46446228 C51.32220066 30.06898516 52.21350122 33.67459771 53.10390782 37.28044701 C54.04005673 41.06847887 54.98016699 44.85552754 55.91978455 48.6427002 C57.49654199 55.00029977 59.07060771 61.35856069 60.64282227 67.71728516 C62.65585537 75.85882043 64.67323207 83.99927273 66.69202518 92.13938141 C68.43419611 99.16421028 70.17447103 106.18950863 71.91439128 113.21489525 C72.47062013 115.46052967 73.02708517 117.70610548 73.5835743 119.95167542 C74.46047423 123.49073999 75.33618855 127.03009604 76.2110157 130.56967354 C76.68224344 132.47528756 77.15450246 134.38064646 77.62680054 136.28599548 C82.30712017 155.23963736 82.30712017 155.23963736 82 160 C84.64 160 87.28 160 90 160 C90.04411011 159.16952148 90.04411011 159.16952148 90.08911133 158.32226562 C90.67613589 150.46137917 92.6286768 143.0845319 94.6875 135.5 C97.14793715 126.34736792 99.43691845 117.18448995 101.53125 107.94140625 C105.80686241 89.15371823 110.54609716 70.47737838 115.22436523 51.78686523 C116.56441159 46.43257172 117.89899334 41.07693177 119.2322588 35.72094631 C120.26522623 31.5744192 121.30141435 27.42870217 122.33856773 23.28322029 C122.83288298 21.30544568 123.32608502 19.3273925 123.81815529 17.34905815 C124.49887629 14.6139348 125.18401649 11.8799569 125.87036133 9.14624023 C126.17342949 7.92250198 126.17342949 7.92250198 126.48262024 6.67404175 C127.88579101 1.11420899 127.88579101 1.11420899 129 0 C130.35094982 -0.09268999 131.70667091 -0.11747326 133.06079102 -0.11352539 C133.92160782 -0.11344986 134.78242462 -0.11337433 135.66932678 -0.11329651 C136.60473801 -0.10813522 137.54014923 -0.10297394 138.50390625 -0.09765625 C139.45692123 -0.0962413 140.40993622 -0.09482635 141.39183044 -0.09336853 C144.44875165 -0.08775152 147.50560077 -0.07519616 150.5625 -0.0625 C152.62955624 -0.05748719 154.69661362 -0.05292391 156.76367188 -0.04882812 C161.84247588 -0.03777656 166.9212257 -0.02050055 172 0 C171.40977472 4.73305893 170.49630245 9.15450081 169.14453125 13.7265625 C168.96258713 14.34731659 168.78064301 14.96807068 168.59318542 15.6076355 C168.00396494 17.61473074 167.40820846 19.61982194 166.8125 21.625 C166.39854125 23.03174011 165.98513502 24.43864292 165.57226562 25.84570312 C164.75369226 28.63490715 163.93334309 31.42357861 163.11181641 34.21191406 C161.71601074 38.96758397 160.35241613 43.73184754 159 48.5 C156.33822893 57.8571563 153.6232883 67.19868435 150.90673828 76.54003906 C148.58601963 84.52146848 146.27499375 92.50538918 144 100.5 C141.33839157 109.85322283 138.62609185 119.19152491 135.90975952 128.52896118 C133.76805584 135.89175682 131.63378765 143.25637013 129.53857422 150.63256836 C128.60170439 153.92925387 127.65683002 157.22361192 126.71044922 160.51757812 C126.21398195 162.25231326 125.72110683 163.98807867 125.23095703 165.72460938 C124.4556646 168.46522256 123.66666776 171.20157833 122.875 173.9375 C122.64530518 174.76080811 122.41561035 175.58411621 122.17895508 176.43237305 C120.54095589 182.02532797 118.64564851 186.75913738 114.06762695 190.63671875 C109.38182234 192.71913283 104.85792812 192.44778914 99.78515625 192.43359375 C98.69665878 192.4388356 97.60816132 192.44407745 96.48667908 192.44947815 C94.18782401 192.45589318 91.8889361 192.45456811 89.59008789 192.44604492 C86.07834235 192.43753838 82.56822542 192.46630012 79.05664062 192.49804688 C76.82031299 192.49965912 74.58398247 192.49908091 72.34765625 192.49609375 C71.30062027 192.50732773 70.25358429 192.51856171 69.17481995 192.53013611 C63.14190024 192.4726474 59.58774056 192.04028875 55 188 C53.6796875 186.0625 53.6796875 186.0625 52.875 184 C52.56046875 183.19949219 52.2459375 182.39898438 51.921875 181.57421875 C51.61765625 180.72472656 51.3134375 179.87523437 51 179 C50.69578125 178.18144531 50.3915625 177.36289062 50.078125 176.51953125 C47.46322963 169.09279974 45.46533616 161.49706173 43.42016602 153.89941406 C39.39307038 138.96981547 34.98147418 124.15451744 30.4375 109.375 C27.88597026 101.06894137 25.52352018 92.72774178 23.26708984 84.3371582 C19.29199327 69.59519116 14.92335362 54.96859679 10.4375 40.375 C8.05762454 32.61250252 5.78071498 24.8278538 3.625 17 C3.24879517 15.64720947 3.24879517 15.64720947 2.86499023 14.26708984 C2.63368408 13.4158252 2.40237793 12.56456055 2.1640625 11.6875 C1.86169678 10.57955078 1.86169678 10.57955078 1.55322266 9.44921875 C0.84993862 6.3356506 0.4514181 3.1599267 0 0 Z " fill="#232222" transform="translate(426,348)"/>
<path d="M0 0 C3.72070823 1.24023608 4.62521091 2.95730148 7 6 C7.99 6.66 8.98 7.32 10 8 C12.20608565 12.06253292 12.28315466 15.9618972 12.25396729 20.47895813 C12.25708727 21.22331484 12.26020725 21.96767154 12.26342177 22.73458451 C12.27138773 25.22458588 12.26508334 27.71434259 12.25878906 30.2043457 C12.2614998 31.99190921 12.2650612 33.77947159 12.26940918 35.56703186 C12.27853281 40.42305493 12.27498709 45.27899306 12.26865101 50.13501763 C12.26358228 55.22845705 12.26828569 60.32188927 12.27142334 65.41532898 C12.27506407 73.98075664 12.27026487 82.54614984 12.26074219 91.11157227 C12.24989564 100.98103345 12.25335504 110.85041175 12.264395 120.71987087 C12.27351059 129.2118784 12.27473122 137.70386115 12.26951766 146.19587201 C12.26641642 151.25896031 12.26593663 156.32200986 12.27259064 161.3850956 C12.27842443 166.15806197 12.27425838 170.93092323 12.26280212 175.7038784 C12.26018582 177.44355979 12.26086786 179.18325022 12.26532745 180.92292786 C12.32934658 208.46513093 12.32934658 208.46513093 7 220 C5.10189033 225.47561678 3.81709938 230.49299953 4.0625 236.3125 C4.2343893 241.05066589 2.88108599 243.18679795 0 247 C-0.68939809 249.32671854 -1.35466922 251.66067594 -2 254 C-2.9588877 256.09357148 -4.00095948 258.12683813 -5.06640625 260.16796875 C-6.07460445 262.06795383 -6.07460445 262.06795383 -6.9375 264.4375 C-9.53321101 270.6977442 -13.19277229 276.41606602 -17 282 C-17.64775391 283.10988281 -17.64775391 283.10988281 -18.30859375 284.2421875 C-20.73763397 288.20270111 -23.49494596 291.90689779 -26.24023438 295.65234375 C-26.66498047 296.23886719 -27.08972656 296.82539062 -27.52734375 297.4296875 C-27.90624756 297.94772949 -28.28515137 298.46577148 -28.67553711 298.99951172 C-30.15478582 301.17324619 -30.15478582 301.17324619 -31.8112793 304.30664062 C-33.98322605 308.13537206 -36.5893711 311.36733058 -39.4921875 314.6640625 C-40.04727997 315.29873444 -40.60237244 315.93340637 -41.17428589 316.58731079 C-48.60173895 324.95518201 -56.53847515 332.83731079 -64.46630859 340.72705078 C-67.13484263 343.38480287 -69.792433 346.05316563 -72.44921875 348.72265625 C-92.48271006 368.77390982 -92.48271006 368.77390982 -103 375 C-105.08649443 376.53957584 -107.14379796 378.09364451 -109.1875 379.6875 C-109.75629883 380.12666748 -110.32509766 380.56583496 -110.91113281 381.01831055 C-114.40641689 383.72602851 -117.83619893 386.50239145 -121.25 389.3125 C-124.82044906 392.19060237 -128.37736185 394.40015617 -132.43359375 396.51171875 C-136.53467778 398.88997296 -140.3119683 401.71588779 -144.12792969 404.52294922 C-146.99865748 406.62389548 -149.7751534 408.49791913 -153 410 C-153.99 410.66 -154.98 411.32 -156 412 C-159 414 -159 414 -160.8828125 414.9375 C-163.31045905 416.15580233 -165.56991797 417.56381182 -167.875 419 C-171.53930106 421.20927933 -174.85669273 422.85397884 -179 424 C-179.99580078 424.38478516 -179.99580078 424.38478516 -181.01171875 424.77734375 C-187.98172974 427.41694652 -194.76666201 428.05248034 -202 426 C-202 425.01 -202 424.02 -202 423 C-203.01320313 422.87044922 -203.01320313 422.87044922 -204.046875 422.73828125 C-211.47426735 421.56835962 -211.47426735 421.56835962 -214.3125 418.5 C-214.869375 417.675 -215.42625 416.85 -216 416 C-217.6513799 415.29631922 -219.32102373 414.63502827 -221 414 C-222.79151863 413.03754912 -224.56294309 412.03677447 -226.3125 411 C-227.63701172 410.2265625 -227.63701172 410.2265625 -228.98828125 409.4375 C-229.98408203 408.7259375 -229.98408203 408.7259375 -231 408 C-231 407.34 -231 406.68 -231 406 C-231.598125 405.855625 -232.19625 405.71125 -232.8125 405.5625 C-234.56150404 405.1127561 -236.28677023 404.57107659 -238 404 C-238 403.34 -238 402.68 -238 402 C-239.32 402 -240.64 402 -242 402 C-242 401.34 -242 400.68 -242 400 C-243.3921875 399.5978125 -243.3921875 399.5978125 -244.8125 399.1875 C-247.82445764 398.06539813 -248.96347496 397.3420038 -251 395 C-251.66 394.67 -252.32 394.34 -253 394 C-253 393.34 -253 392.68 -253 392 C-253.99 392 -254.98 392 -256 392 C-256 391.34 -256 390.68 -256 390 C-257.65 389.67 -259.3 389.34 -261 389 C-261 388.34 -261 387.68 -261 387 C-261.66 387 -262.32 387 -263 387 C-263 386.34 -263 385.68 -263 385 C-264.32 384.67 -265.64 384.34 -267 384 C-267 383.34 -267 382.68 -267 382 C-267.763125 381.71125 -268.52625 381.4225 -269.3125 381.125 C-272 380 -272 380 -275 378 C-275 377.34 -275 376.68 -275 376 C-276.3921875 375.5978125 -276.3921875 375.5978125 -277.8125 375.1875 C-280.97046912 374.0110017 -281.77501603 373.3151099 -284 371 C-285.27700244 370.02221152 -286.56966842 369.06463558 -287.875 368.125 C-291.22305916 365.64743622 -294.08721284 362.98560684 -297 360 C-301.08183011 356.25909024 -305.3038841 352.7552233 -309.6875 349.375 C-320.13199447 341.05154133 -329.78009799 331.28692692 -337 320 C-337 319.34 -337 318.68 -337 318 C-337.99 317.67 -338.98 317.34 -340 317 C-345 311.53488372 -345 311.53488372 -345 309 C-345.66 309 -346.32 309 -347 309 C-347.66 307.35 -348.32 305.7 -349 304 C-349.66 304 -350.32 304 -351 304 C-351.33 302.68 -351.66 301.36 -352 300 C-348.05091849 302.9364965 -345.09013504 306.03461232 -342.05078125 309.91015625 C-337.13238235 315.98246987 -331.78807046 321.51624554 -326.24414062 327.01660156 C-324.62653713 328.62347307 -323.01993087 330.24078494 -321.4140625 331.859375 C-315.66321676 337.61752491 -309.77964324 342.99803647 -303.40771484 348.078125 C-300.87807052 350.09732598 -298.44764993 352.20129705 -296.02392578 354.34472656 C-275.65526875 372.29211741 -252.44143503 387.40060288 -229 401 C-227.35257813 401.98419922 -227.35257813 401.98419922 -225.671875 402.98828125 C-216.61744899 408.37410362 -207.9357824 413.46765001 -197 412 C-160.89905147 402.59155368 -125.86401416 370.97513414 -98 347 C-97.29617188 346.39800781 -96.59234375 345.79601562 -95.8671875 345.17578125 C-83.8858866 334.82373675 -72.30769751 324.03225459 -62 312 C-61.09450623 310.96938717 -60.18819042 309.93949625 -59.28125 308.91015625 C-33.7038918 279.71901625 -12.60472669 245.17528489 -4 207 C-3.71511719 205.81148437 -3.43023438 204.62296875 -3.13671875 203.3984375 C-0.05349647 189.98422873 0.14412721 176.71831833 0.11352539 163.02246094 C0.11324279 161.23746238 0.11340267 159.4524637 0.1139679 157.66746521 C0.11425304 152.85633544 0.10840231 148.04523095 0.10139394 143.23410702 C0.09511304 138.19328377 0.09455287 133.15245985 0.09336853 128.1116333 C0.09026912 118.58159059 0.08207458 109.05155944 0.07201904 99.52152181 C0.06081459 88.66534524 0.05533656 77.80916811 0.05032361 66.95298719 C0.03989072 44.63531836 0.02231836 22.31765991 0 0 Z " fill="#64111F" transform="translate(704,252)"/>
<path d="M0 0 C7.06164086 -0.10207342 14.12308892 -0.17174631 21.18530273 -0.21972656 C23.58381256 -0.23974509 25.98227418 -0.26696833 28.38061523 -0.30175781 C31.84370882 -0.35070613 35.3061528 -0.37306731 38.76953125 -0.390625 C39.82831985 -0.41127014 40.88710846 -0.43191528 41.97798157 -0.45318604 C52.11120055 -0.45618683 60.87893984 1.96481165 68.34375 9.0625 C73.57096954 15.17736059 75.1309373 21.74900772 75.2109375 29.625 C75.2389948 31.1510526 75.26765918 32.67709414 75.296875 34.203125 C75.33820412 36.60611797 75.37509731 39.0089018 75.40136719 41.41210938 C75.42893494 43.73350424 75.47478908 46.05396413 75.5234375 48.375 C75.52669037 49.09381348 75.52994324 49.81262695 75.53329468 50.55322266 C75.57463299 54.50008809 75.57463299 54.50008809 77.52978516 57.7890625 C78.01495605 58.18867187 78.50012695 58.58828125 79 59 C79 59.99 79 60.98 79 62 C77.8553125 62.2475 77.8553125 62.2475 76.6875 62.5 C72.77340936 64.68460873 72.30439864 67.96191484 71 72 C65.63459991 85.80371114 57.87276862 95.35227615 44.29296875 101.64453125 C30.13877179 107.47075467 17.10069912 107.48778504 2 107 C2.13980455 102.97893351 2.28792319 98.9582139 2.4375 94.9375 C2.47681641 93.80376953 2.51613281 92.67003906 2.55664062 91.50195312 C2.76788399 85.92837821 3.11622795 80.5147376 4 75 C4.3450146 71.27877111 4.55126685 67.70638987 4 64 C1.7211176 61.25229728 1.7211176 61.25229728 -1 60 C0 57 0 57 2 55.9375 C2.66 55.628125 3.32 55.31875 4 55 C5.16952981 52.66094037 5.15098736 51.22141763 5.19287109 48.61376953 C5.20893402 47.70587677 5.22499695 46.79798401 5.24154663 45.86257935 C5.28595129 41.71356929 5.32705005 37.56471929 5.35009766 33.41552734 C5.36667294 31.22531521 5.39398341 29.03515751 5.43212891 26.84521484 C5.48680235 23.69079472 5.50875598 20.53764214 5.5234375 17.3828125 C5.54610687 16.4035379 5.56877625 15.42426331 5.59213257 14.41531372 C5.58411666 11.84407813 5.53882407 9.51453649 5 7 C2.61922289 4.51228875 2.61922289 4.51228875 0 3 C0 2.01 0 1.02 0 0 Z " fill="#F61D43" transform="translate(777,735)"/>
<path d="M0 0 C18.68777656 -0.44839092 18.68777656 -0.44839092 25.8671875 5.8203125 C31.88826703 12.23995049 32.49098085 19.129475 32.3203125 27.671875 C31.56721547 36.52321027 27.96025457 42.2163298 21.53515625 48.2265625 C16.82948791 51.93118027 11.67507328 54.32185057 6.01953125 56.20703125 C6.87675781 56.41457031 7.73398437 56.62210938 8.6171875 56.8359375 C17.69644529 59.2823215 22.72716479 62.03331252 27.76953125 69.95703125 C30.37507191 76.73143696 31.98657397 83.52755131 33.01953125 90.70703125 C34.4553793 103.14762658 34.4553793 103.14762658 41.01953125 113.20703125 C44.6613546 114.09758861 44.6613546 114.09758861 48.01953125 114.20703125 C48.01953125 115.19703125 48.01953125 116.18703125 48.01953125 117.20703125 C45.0397951 117.28887548 42.06236293 117.34792889 39.08203125 117.39453125 C38.25123047 117.41966797 37.42042969 117.44480469 36.56445312 117.47070312 C28.91604529 117.55998415 21.14586599 116.26628696 15.359375 110.81640625 C9.1724711 103.38490652 7.87851383 94.44345489 6.36230469 85.20996094 C5.83460681 82.12646139 5.19148304 79.07448733 4.51953125 76.01953125 C4.30296875 75.01535156 4.08640625 74.01117187 3.86328125 72.9765625 C2.68059245 69.09449603 1.44701879 66.13149937 -2.03125 63.87890625 C-2.77761719 63.5746875 -3.52398438 63.27046875 -4.29296875 62.95703125 C-5.40091797 62.48523438 -5.40091797 62.48523438 -6.53125 62.00390625 C-9.52109443 60.96393966 -9.52109443 60.96393966 -14.98046875 60.20703125 C-14.98046875 73.40703125 -14.98046875 86.60703125 -14.98046875 100.20703125 C-13.66046875 100.86703125 -12.34046875 101.52703125 -10.98046875 102.20703125 C-10.98046875 103.52703125 -10.98046875 104.84703125 -10.98046875 106.20703125 C-22.20046875 106.20703125 -33.42046875 106.20703125 -44.98046875 106.20703125 C-44.65046875 104.88703125 -44.32046875 103.56703125 -43.98046875 102.20703125 C-42.49546875 101.71203125 -42.49546875 101.71203125 -40.98046875 101.20703125 C-40.85663811 95.88688609 -40.76602199 90.56758411 -40.70581055 85.24633789 C-40.68070485 83.43726993 -40.6466128 81.62830303 -40.60327148 79.81958008 C-40.54244296 77.21540374 -40.51422066 74.61257094 -40.4921875 72.0078125 C-40.46638107 71.20241531 -40.44057465 70.39701813 -40.41398621 69.56721497 C-40.41179494 65.15508411 -40.57477911 63.69601153 -43.51098633 60.15698242 C-44.32591553 59.51349854 -45.14084473 58.87001465 -45.98046875 58.20703125 C-45.17609375 57.95953125 -44.37171875 57.71203125 -43.54296875 57.45703125 C-40.85630191 56.51391844 -40.85630191 56.51391844 -40.32740784 54.409729 C-39.96934592 52.13641298 -39.86033106 50.01494721 -39.86694336 47.71386719 C-39.86701889 46.83325623 -39.86709442 45.95264526 -39.86717224 45.04534912 C-39.87233353 44.10354797 -39.87749481 43.16174683 -39.8828125 42.19140625 C-39.88493492 40.73495697 -39.88493492 40.73495697 -39.88710022 39.24908447 C-39.89269212 36.1517019 -39.90524316 33.05439193 -39.91796875 29.95703125 C-39.9229848 27.85546979 -39.92754752 25.75390721 -39.93164062 23.65234375 C-39.9426589 18.50387833 -39.95991801 13.35546709 -39.98046875 8.20703125 C-41.96046875 7.54703125 -43.94046875 6.88703125 -45.98046875 6.20703125 C-46.31046875 4.55703125 -46.64046875 2.90703125 -46.98046875 1.20703125 C-36.15768893 0.90945427 -25.33470898 0.62916358 -14.51062012 0.383255 C-9.67307016 0.27296425 -4.83667209 0.14454422 0 0 Z " fill="#F61D43" transform="translate(722.98046875,733.79296875)"/>
<path d="M0 0 C-0.25 2.375 -0.25 2.375 -1 5 C-3.046875 6.1640625 -3.046875 6.1640625 -5 7 C-5.36670763 18.15062843 -4.86624779 29.03262742 -3.625 40.125 C-3.49891357 41.26171143 -3.37282715 42.39842285 -3.24291992 43.56958008 C-2.74472909 54.22945613 -2.74472909 54.22945613 1.45117188 63.43237305 C3.26793059 64.71174276 3.26793059 64.71174276 6 66 C5.34 66.495 4.68 66.99 4 67.5 C1.26021226 70.92473467 1.66314313 73.81707985 2 78 C2.55029828 81.91876953 3.26376202 85.79986499 4 89.6875 C4.37894098 91.71150571 4.7540795 93.73622786 5.125 95.76171875 C5.29257812 96.64819092 5.46015625 97.53466309 5.6328125 98.44799805 C6.00046034 101.00319945 6.06488143 103.42241153 6 106 C9.0831351 104.80100302 12.06279492 103.52299523 15 102 C14.65562142 104.54840148 14.34281368 106.50132819 12.87231445 108.64038086 C10.08317384 110.66577192 7.77092943 110.40320506 4.35546875 110.44140625 C2.38030273 110.48104492 2.38030273 110.48104492 0.36523438 110.52148438 C-1.02733138 110.53636326 -2.41991065 110.55002421 -3.8125 110.5625 C-5.8707146 110.58639064 -7.9285203 110.61472389 -9.98649597 110.65428162 C-11.86167848 110.68960982 -13.73713147 110.70959601 -15.61254883 110.72875977 C-19.05390009 111.00431589 -21.75686095 111.86804331 -25 113 C-26.32 113 -27.64 113 -29 113 C-29 111.68 -29 110.36 -29 109 C-27.20963542 108.05598958 -25.41927083 107.11197917 -23.62890625 106.16796875 C-21.67732013 105.00980201 -21.67732013 105.00980201 -21 102 C-20.19270183 91.35492873 -21.85874165 80.55663972 -23 70 C-35.375 70.495 -35.375 70.495 -48 71 C-48.825 74.75375 -49.65 78.5075 -50.5 82.375 C-50.76103516 83.53692871 -51.02207031 84.69885742 -51.29101562 85.89599609 C-52.67381264 92.36331579 -53.33321102 98.3894635 -53 105 C-51.35 105.66 -49.7 106.32 -48 107 C-48 107.99 -48 108.98 -48 110 C-60.375 110.495 -60.375 110.495 -73 111 C-71.87195348 107.61586044 -71.51210414 107.50433611 -68.61328125 105.8203125 C-64.3143889 102.87971641 -63.35424802 99.80479784 -62.1875 94.875 C-61.98938721 94.12379883 -61.79127441 93.37259766 -61.5871582 92.59863281 C-58.62159284 81.44621689 -58.62159284 81.44621689 -58 70 C-59.45833358 68.37485532 -59.45833358 68.37485532 -61 67 C-61 66.01 -61 65.02 -61 64 C-58.03 63.505 -58.03 63.505 -55 63 C-52.44351231 50.52528694 -49.94281732 38.04444881 -47.75 25.5 C-47.58725586 24.57695068 -47.42451172 23.65390137 -47.25683594 22.70288086 C-46.30030054 17.14695368 -45.57001745 11.60897171 -45 6 C-49.90263178 7.15356042 -53.48269431 8.18121097 -57 12 C-57.98436476 14.67624169 -58.4820967 17.17507293 -59 20 C-60.65 19.67 -62.3 19.34 -64 19 C-63.7952952 13.1659133 -62.80284893 10.00849688 -59.05859375 5.54296875 C-52.78370637 0.83977991 -46.18402447 0.58913109 -38.6640625 0.7421875 C-37.70349945 0.74880402 -36.7429364 0.75542053 -35.75326538 0.76223755 C-32.71017234 0.78549043 -29.66783004 0.82921054 -26.625 0.875 C-23.56083995 0.91006563 -20.4967189 0.94081537 -17.4324646 0.96633911 C-15.53153866 0.98332115 -13.63065588 1.00646724 -11.72988892 1.03634644 C-10.87494843 1.04610504 -10.02000793 1.05586365 -9.13916016 1.06591797 C-8.38607574 1.07718719 -7.63299133 1.08845642 -6.85708618 1.10006714 C-4.2346415 0.95875946 -2.77910298 0 0 0 Z " fill="#F31D42" transform="translate(312,730)"/>
<path d="M0 0 C0.99 0.33 1.98 0.66 3 1 C2.8125 3.375 2.8125 3.375 2 6 C-0.55078125 7.1640625 -0.55078125 7.1640625 -3 8 C-3.30081453 17.93913502 -2.50452583 27.59403647 -1.40087891 37.45922852 C-1.12284664 39.95684406 -0.85961572 42.45573108 -0.59765625 44.95507812 C-0.42274894 46.56259533 -0.24699824 48.17002104 -0.0703125 49.77734375 C0.00686005 50.51492416 0.08403259 51.25250458 0.1635437 52.01243591 C0.64586565 56.2264178 1.33098126 60.08742493 3 64 C5.50995496 65.43923199 5.50995496 65.43923199 8 66 C8 66.99 8 67.98 8 69 C6.9790625 69.556875 6.9790625 69.556875 5.9375 70.125 C5.298125 70.74375 4.65875 71.3625 4 72 C4.20138382 75.06166339 4.53899666 77.97307512 5 81 C5.153479 82.01610352 5.30695801 83.03220703 5.46508789 84.07910156 C5.98226611 87.40954023 6.51931461 90.73620925 7.0625 94.0625 C7.24876953 95.21427734 7.43503906 96.36605469 7.62695312 97.55273438 C8.08266741 100.36881495 8.54039376 103.18455247 9 106 C12.1385057 105.25561083 15.02009661 104.24162641 18 103 C17.4525726 106.83199179 16.00290879 108.60206944 13 111 C9.93481445 111.49829102 9.93481445 111.49829102 6.36328125 111.50390625 C5.06326172 111.52259766 3.76324219 111.54128906 2.42382812 111.56054688 C1.05338745 111.56299672 -0.31705761 111.56363541 -1.6875 111.5625 C-10.34652837 111.57807566 -17.91920484 111.64116894 -26 115 C-26.33 113.68 -26.66 112.36 -27 111 C-26.4225 110.77570313 -25.845 110.55140625 -25.25 110.3203125 C-22.41778469 108.81569811 -20.89381297 107.61901487 -19 105 C-18.109524 98.95704565 -18.55921522 93.07086408 -19 87 C-19.08777126 85.4220463 -19.17248631 83.84391916 -19.25390625 82.265625 C-19.45037218 78.50381469 -19.72654202 74.76004716 -20 71 C-28.58 71 -37.16 71 -46 71 C-46.33 73.97 -46.66 76.94 -47 80 C-47.80872663 83.5889274 -48.6852966 87.13852453 -49.62695312 90.69335938 C-50.85743257 95.5927409 -51.39124699 99.94134171 -51 105 C-48.59141286 106.8624438 -48.59141286 106.8624438 -46 108 C-46 108.99 -46 109.98 -46 111 C-53.92 111.33 -61.84 111.66 -70 112 C-68 108 -68 108 -65.54296875 106.71875 C-62.01979323 104.33749466 -61.37636919 101.42207954 -60.3125 97.5 C-60.00179565 96.42794312 -60.00179565 96.42794312 -59.68481445 95.33422852 C-57.46731289 87.48883662 -55.14542861 79.20388532 -56 71 C-57.35429841 69.05630262 -57.35429841 69.05630262 -59 68 C-58.67 67.01 -58.34 66.02 -58 65 C-57.195625 64.73574219 -56.39125 64.47148438 -55.5625 64.19921875 C-52.7633297 63.22679544 -52.7633297 63.22679544 -51.8125 60.39453125 C-51.544375 59.21246094 -51.27625 58.03039062 -51 56.8125 C-50.77026489 55.80884399 -50.77026489 55.80884399 -50.53588867 54.78491211 C-47.13253507 39.1166745 -44.59254167 22.94291716 -43 7 C-49.25591397 8.90858392 -52.37016318 10.50024724 -56 16 C-56.86542699 18.72113503 -56.86542699 18.72113503 -57 21 C-58.32 20.67 -59.64 20.34 -61 20 C-62.08114045 16.78521814 -62.02228407 15.12138363 -60.5625 12.0625 C-57.61571755 6.53985876 -52.79489875 3.93163292 -47 2 C-44.36370665 1.90150113 -41.76069822 1.85882121 -39.125 1.875 C-38.36485596 1.87693359 -37.60471191 1.87886719 -36.8215332 1.88085938 C-31.2101025 1.92327649 -25.66547904 2.28857895 -20.07421875 2.765625 C-16.87974351 3.00916822 -13.70287967 3.17197613 -10.5 3.25 C-9.09234375 3.28867187 -9.09234375 3.28867187 -7.65625 3.328125 C-4.49724531 2.93789501 -2.69184352 1.63305173 0 0 Z " fill="#F41D42" transform="translate(650,729)"/>
<path d="M0 0 C0.99 0.495 0.99 0.495 2 1 C2 1.66 2 2.32 2 3 C2.99 3 3.98 3 5 3 C6.47414551 8.2928871 7.24869494 12.88221766 7.24050903 18.41589355 C7.24221788 19.11693285 7.24392673 19.81797215 7.24568737 20.54025507 C7.24895424 22.86483484 7.23802544 25.18911917 7.22705078 27.51367188 C7.22648606 29.18970737 7.22680442 30.86574336 7.22793579 32.54177856 C7.22850792 37.07426187 7.21677622 41.6066386 7.20278788 46.13909721 C7.19025724 50.8823174 7.18910818 55.62554023 7.18673706 60.36877441 C7.18052914 69.34293758 7.16412765 78.31705183 7.14403808 87.29119349 C7.12165765 97.51125024 7.11068026 107.73130937 7.10064721 117.95138454 C7.07976081 138.96761697 7.04459823 159.9838054 7 181 C6.34 181 5.68 181 5 181 C5.03480469 181.680625 5.06960938 182.36125 5.10546875 183.0625 C5.3565689 192.05427675 3.86624325 200.26006874 2 209 C1.73316406 210.30324219 1.73316406 210.30324219 1.4609375 211.6328125 C-1.37203977 225.02943383 -5.15375625 238.5951731 -12.4375 250.3125 C-13.74240211 252.55693162 -14.74351752 254.68120528 -15.75 257.0625 C-29.76332347 288.97298941 -56.89088152 319.05548182 -82.76953125 341.92578125 C-85.04588232 343.79973802 -85.04588232 343.79973802 -86 346 C-86.99 346 -87.98 346 -89 346 C-89 346.66 -89 347.32 -89 348 C-90.84375 349.70703125 -90.84375 349.70703125 -93.5 351.8125 C-94.50417969 352.61429688 -95.50835938 353.41609375 -96.54296875 354.2421875 C-97.37513916 354.90299316 -97.37513916 354.90299316 -98.22412109 355.57714844 C-100.09781685 357.07837182 -101.95073985 358.60254863 -103.80078125 360.1328125 C-110.88033402 365.97403052 -118.01998398 371.61887823 -125.5715332 376.84155273 C-128.29376625 378.7307394 -130.66721712 380.66047497 -133 383 C-134.24715585 383.72957241 -135.52164576 384.41337062 -136.8125 385.0625 C-141.14254344 387.3864548 -145.04110161 390.10826447 -149 393 C-154.15791984 396.75446029 -159.33047566 400.05786048 -165 403 C-166.4391722 403.80953436 -167.87662653 404.62212899 -169.3125 405.4375 C-170.87360905 406.29420618 -172.43622605 407.14816787 -174 408 C-174.95132813 408.53238281 -175.90265625 409.06476563 -176.8828125 409.61328125 C-184.71150624 413.80793941 -191.04234116 416.03950911 -199.875 414.1875 C-202.3544243 413.24531877 -204.68829866 412.29455275 -207 411 C-207 410.34 -207 409.68 -207 409 C-210.3 408.67 -213.6 408.34 -217 408 C-217 407.01 -217 406.02 -217 405 C-215.948125 405.32484375 -215.948125 405.32484375 -214.875 405.65625 C-201.23766112 409.6585125 -192.64213011 407.12073253 -180.3359375 400.55859375 C-151.20085295 384.52697688 -124.17263246 364.65937888 -99 343 C-98.29617188 342.39800781 -97.59234375 341.79601562 -96.8671875 341.17578125 C-84.8858866 330.82373675 -73.30769751 320.03225459 -63 308 C-62.09450623 306.96938717 -61.18819042 305.93949625 -60.28125 304.91015625 C-34.7038918 275.71901625 -13.60472669 241.17528489 -5 203 C-4.71511719 201.81148437 -4.43023438 200.62296875 -4.13671875 199.3984375 C-1.08495953 186.12111538 -0.84238438 172.94863151 -0.79467773 159.38964844 C-0.78507909 157.64405598 -0.7750679 155.89846574 -0.76467896 154.15287781 C-0.73783881 149.44920735 -0.71671728 144.74552707 -0.69667697 140.04182339 C-0.67468726 135.11308987 -0.64736259 130.18438588 -0.62062073 125.25567627 C-0.57086828 115.93815113 -0.52586532 106.62060945 -0.48259836 97.30305219 C-0.43307609 86.68868788 -0.37821394 76.07435324 -0.32291877 65.46001768 C-0.20936686 43.64003947 -0.10247034 21.82003289 0 0 Z " fill="#7E1325" transform="translate(705,256)"/>
<path d="M0 0 C1.5631897 0.00785522 1.5631897 0.00785522 3.15795898 0.01586914 C4.28266602 0.0190918 5.40737305 0.02231445 6.56616211 0.02563477 C7.75016602 0.03401367 8.93416992 0.04239258 10.15405273 0.05102539 C11.34192383 0.05553711 12.52979492 0.06004883 13.75366211 0.06469727 C16.69967499 0.07652864 19.64558954 0.09301252 22.59155273 0.11352539 C46.22125389 46.27481614 46.22125389 46.27481614 55.02905273 63.86352539 C55.59446777 64.98984375 56.15988281 66.11616211 56.74243164 67.27661133 C57.24822754 68.29013672 57.75402344 69.30366211 58.27514648 70.34790039 C58.7036792 71.20609375 59.13221191 72.06428711 59.57373047 72.94848633 C60.59155273 75.11352539 60.59155273 75.11352539 61.59155273 78.11352539 C62.25155273 54.35352539 62.91155273 30.59352539 63.59155273 6.11352539 C61.61155273 5.78352539 59.63155273 5.45352539 57.59155273 5.11352539 C57.59155273 3.46352539 57.59155273 1.81352539 57.59155273 0.11352539 C63.53155273 0.11352539 69.47155273 0.11352539 75.59155273 0.11352539 C76.08655273 2.58852539 76.08655273 2.58852539 76.59155273 5.11352539 C74.61155273 5.44352539 72.63155273 5.77352539 70.59155273 6.11352539 C70.49026447 12.75198356 70.42013479 19.39024305 70.37182617 26.02929688 C70.35169108 28.28848721 70.32438084 30.54762531 70.28979492 32.80664062 C70.24136111 36.0509936 70.21860297 39.29465857 70.20092773 42.53930664 C70.18028259 43.55189041 70.15963745 44.56447418 70.1383667 45.60774231 C70.13806458 46.54849106 70.13776245 47.48923981 70.13745117 48.45849609 C70.1241275 49.70092827 70.1241275 49.70092827 70.11053467 50.96846008 C70.76042973 53.86662017 72.23220057 54.44232065 74.59155273 56.11352539 C74.59155273 57.10352539 74.59155273 58.09352539 74.59155273 59.11352539 C73.77968506 59.48082764 72.96781738 59.84812988 72.13134766 60.2265625 C69.46958379 61.79108079 69.46958379 61.79108079 69.11953735 63.94778442 C68.94823363 66.4108169 68.92603661 68.83601536 68.95483398 71.30493164 C68.94445602 72.20598129 68.93407806 73.10703094 68.92338562 74.03538513 C68.89364466 76.91598513 68.89708924 79.79529917 68.90405273 82.67602539 C68.89517466 85.55996132 68.87927725 88.44355078 68.85258484 91.32737732 C68.83761189 93.12245361 68.83390037 94.91766502 68.84236145 96.71278381 C68.81393678 102.89114135 68.81393678 102.89114135 66.59155273 105.11352539 C64.07756223 105.39318476 61.73299075 105.52957848 59.21655273 105.55102539 C58.54366211 105.58389648 57.87077148 105.61676758 57.17749023 105.65063477 C53.84612223 105.68670273 52.01666962 105.4918477 49.49780273 103.25024414 C46.73599466 98.70571159 44.05170336 94.13632764 41.46655273 89.48852539 C40.87197266 88.4248877 40.27739258 87.36125 39.66479492 86.26538086 C33.33522214 74.83167945 27.3830295 63.20376482 21.45825195 51.55639648 C20.89492661 50.45041107 20.89492661 50.45041107 20.32022095 49.32208252 C19.61323573 47.93270081 18.90803516 46.54240902 18.20492554 45.15106201 C16.78378715 42.35559557 15.33389909 39.72704493 13.59155273 37.11352539 C12.93155273 57.90352539 12.27155273 78.69352539 11.59155273 100.11352539 C13.24155273 100.44352539 14.89155273 100.77352539 16.59155273 101.11352539 C16.59155273 102.43352539 16.59155273 103.75352539 16.59155273 105.11352539 C10.32155273 105.11352539 4.05155273 105.11352539 -2.40844727 105.11352539 C-2.07844727 103.79352539 -1.74844727 102.47352539 -1.40844727 101.11352539 C-0.57579346 100.70682617 0.25686035 100.30012695 1.11474609 99.88110352 C4.01383694 98.25101896 4.01383694 98.25101896 4.22265625 94.42407227 C4.24889985 92.89369813 4.24632488 91.36265595 4.22045898 89.83227539 C4.22287094 89.02238159 4.2252829 88.21248779 4.22776794 87.37805176 C4.22678893 85.66661683 4.21338214 83.95515046 4.18847656 82.24389648 C4.15417049 79.62252361 4.16781025 77.00452154 4.18725586 74.38305664 C4.18035733 72.72028186 4.17068488 71.05751579 4.15795898 69.39477539 C4.16291885 68.61034058 4.16787872 67.82590576 4.17298889 67.0177002 C4.16437384 64.54722843 4.16437384 64.54722843 3.59155273 61.11352539 C1.66472242 59.26205776 1.66472242 59.26205776 -0.40844727 58.11352539 C-0.40844727 57.12352539 -0.40844727 56.13352539 -0.40844727 55.11352539 C0.23092773 54.82477539 0.87030273 54.53602539 1.52905273 54.23852539 C3.74361353 53.28529088 3.74361353 53.28529088 4.59155273 51.11352539 C4.68089679 49.69379266 4.70914251 48.26994748 4.70507812 46.84741211 C4.70500259 45.96665009 4.70492706 45.08588806 4.70484924 44.17843628 C4.69968796 43.22631256 4.69452667 42.27418884 4.68920898 41.29321289 C4.68779404 40.31941681 4.68637909 39.34562073 4.68492126 38.34231567 C4.67931247 35.22435466 4.66675847 32.10646479 4.65405273 28.98852539 C4.64903887 26.87784934 4.64447576 24.76717217 4.64038086 22.65649414 C4.62934018 17.47548018 4.61259347 12.29450787 4.59155273 7.11352539 C2.28155273 6.78352539 -0.02844727 6.45352539 -2.40844727 6.11352539 C-2.79063494 4.45737882 -3.12239828 2.78895515 -3.40844727 1.11352539 C-2.40844727 0.11352539 -2.40844727 0.11352539 0 0 Z " fill="#F31D42" transform="translate(336.408447265625,735.886474609375)"/>
<path d="M0 0 C0.99 0.33 1.98 0.66 3 1 C2.67 2.65 2.34 4.3 2 6 C0.02 6.66 -1.96 7.32 -4 8 C-4.10127533 14.92329438 -4.17141266 21.84639836 -4.21972656 28.77026367 C-4.23986357 31.12645608 -4.26717516 33.48259839 -4.30175781 35.83862305 C-4.35018287 39.22196806 -4.37294796 42.6046534 -4.390625 45.98828125 C-4.41127014 47.04461258 -4.43191528 48.10094391 -4.45318604 49.18928528 C-4.45348816 50.17007553 -4.45379028 51.15086578 -4.45410156 52.16137695 C-4.46742523 53.45710381 -4.46742523 53.45710381 -4.48101807 54.77900696 C-3.83828824 57.74666779 -2.41720347 58.30188519 0 60 C0 60.99 0 61.98 0 63 C-0.78503906 63.35449219 -1.57007813 63.70898438 -2.37890625 64.07421875 C-5.93813809 66.68927284 -5.90609902 68.79453531 -6.55664062 73.02148438 C-6.68232422 73.94251953 -6.80800781 74.86355469 -6.9375 75.8125 C-8.70416101 86.68827387 -11.17714621 97.730126 -19 106 C-23.6458209 109.03969425 -27.82279458 109.47991748 -33.25 109.375 C-33.99999268 109.36557373 -34.74998535 109.35614746 -35.52270508 109.34643555 C-42.75252953 109.15061317 -49.40429486 108.17627462 -55.375 103.8125 C-64.27674733 94.27491357 -64.16133213 81.20089504 -64.36328125 68.7421875 C-65.21304814 65.08245524 -67.05360409 64.18286247 -70 62 C-70 61.01 -70 60.02 -70 59 C-69.360625 58.71125 -68.72125 58.4225 -68.0625 58.125 C-65.84793921 57.17176549 -65.84793921 57.17176549 -65 55 C-64.88213309 53.51987176 -64.82307062 52.03483534 -64.79467773 50.55029297 C-64.77473251 49.62948944 -64.75478729 48.70868591 -64.73423767 47.75997925 C-64.70916893 46.26617233 -64.70916893 46.26617233 -64.68359375 44.7421875 C-64.66281265 43.72399933 -64.64203156 42.70581116 -64.62062073 41.6567688 C-64.55510534 38.39624945 -64.49623098 35.13564794 -64.4375 31.875 C-64.39431668 29.66796017 -64.35070245 27.46092872 -64.30664062 25.25390625 C-64.19942195 19.83602499 -64.09765926 14.41806154 -64 9 C-65.65 8.67 -67.3 8.34 -69 8 C-69 6.35 -69 4.7 -69 3 C-55.8 3 -42.6 3 -29 3 C-29 4.65 -29 6.3 -29 8 C-30 9 -30 9 -33.4375 9.4375 C-37.04058997 9.64847551 -37.04058997 9.64847551 -39 12 C-40.32608372 17.34318295 -40.14423229 22.77310085 -40.1328125 28.2421875 C-40.13426773 29.23516342 -40.13572296 30.22813934 -40.13722229 31.25120544 C-40.13945942 34.45917609 -40.13321933 37.66704005 -40.125 40.875 C-40.12311676 41.9614682 -40.12123352 43.0479364 -40.11929321 44.16732788 C-40.09659807 62.24282116 -40.09659807 62.24282116 -39.6875 80.3125 C-39.66510254 81.17794434 -39.64270508 82.04338867 -39.61962891 82.93505859 C-39.34565746 89.1000359 -38.34687237 95.26382027 -36 101 C-32.27420911 103.48386059 -30.41288598 103.3804212 -26 103 C-22.96692922 101.94195205 -21.52361605 100.87814775 -19.875 98.11328125 C-13.9277722 85.58474622 -13.8534241 71.94507411 -13.68359375 58.33984375 C-13.6629795 56.94022572 -13.64198201 55.54061329 -13.62062073 54.14100647 C-13.56586103 50.48658835 -13.51625178 46.83211843 -13.46777344 43.1776123 C-13.41721811 39.43672161 -13.3617111 35.69590459 -13.30664062 31.95507812 C-13.19962445 24.63678144 -13.098058 17.31842279 -13 10 C-15.97 9.67 -18.94 9.34 -22 9 C-21.67 7.35 -21.34 5.7 -21 4 C-19.81921875 3.87882813 -18.6384375 3.75765625 -17.421875 3.6328125 C-15.86453957 3.4639448 -14.30725023 3.29465165 -12.75 3.125 C-11.97269531 3.04636719 -11.19539062 2.96773437 -10.39453125 2.88671875 C-6.43999582 2.44732592 -3.54478886 1.87367411 0 0 Z " fill="#F41D42" transform="translate(576,732)"/>
<path d="M0 0 C1.30388672 0.00902344 2.60777344 0.01804687 3.95117188 0.02734375 C7.15513832 0.05081603 10.35872264 0.08365273 13.5625 0.125 C13.35971436 0.7526123 13.15692871 1.38022461 12.94799805 2.02685547 C11.24728144 7.45707009 10.04261989 12.60090859 9.375 18.25 C9.13716797 20.20292969 9.13716797 20.20292969 8.89453125 22.1953125 C8.78496094 23.16210938 8.67539062 24.12890625 8.5625 25.125 C6.90635343 25.50718767 5.23792976 25.83895102 3.5625 26.125 C1.53461505 24.09711505 2.19392756 20.04892018 2.0625 17.25 C1.83722662 11.60723994 1.83722662 11.60723994 0.5625 6.125 C-3.82644582 5.78076896 -7.29682592 5.51664049 -11.25 7.625 C-21.84833635 19.7373844 -22.61092939 38.49474141 -22.5625 53.75 C-22.56636719 54.94496094 -22.57023437 56.13992188 -22.57421875 57.37109375 C-22.62064381 73.53055094 -22.62064381 73.53055094 -19.125 89.1875 C-18.71636719 90.41597656 -18.30773437 91.64445313 -17.88671875 92.91015625 C-16.42662782 96.14911808 -15.24603982 97.97320999 -12.4375 100.125 C-8.83719811 100.4559316 -8.83719811 100.4559316 -5.4375 99.125 C-0.25615178 91.8711125 -1.25495754 82.07459997 -1.25 73.5625 C-1.23163086 71.89670898 -1.23163086 71.89670898 -1.21289062 70.19726562 C-1.20320154 64.80044451 -1.20225409 60.15209456 -3.4375 55.125 C-6.0775 55.125 -8.7175 55.125 -11.4375 55.125 C-11.1075 53.475 -10.7775 51.825 -10.4375 50.125 C-7.08014863 49.00588288 -4.55544614 49.01134414 -1.01953125 49.02734375 C0.23408203 49.03056641 1.48769531 49.03378906 2.77929688 49.03710938 C4.74479492 49.04967773 4.74479492 49.04967773 6.75 49.0625 C8.08528481 49.06751683 9.42057141 49.07207941 10.75585938 49.07617188 C14.02478473 49.08797305 17.29361991 49.10443703 20.5625 49.125 C20.2325 50.775 19.9025 52.425 19.5625 54.125 C17.9125 54.455 16.2625 54.785 14.5625 55.125 C14.53671875 56.0221875 14.5109375 56.919375 14.484375 57.84375 C13.78898217 73.14239233 11.3183062 89.93636615 0.390625 101.4609375 C-5.35734192 106.69306123 -11.41769953 106.72659863 -18.93359375 106.52734375 C-27.41063102 105.55394928 -33.36242219 101.27068494 -38.6875 94.75390625 C-43.96518917 86.82559194 -46.05597592 77.83658456 -47.18676758 68.50561523 C-47.72507648 64.78872046 -48.26447305 63.28942772 -51.03125 60.66015625 C-51.8253125 60.15355469 -52.619375 59.64695312 -53.4375 59.125 C-52.4375 56.125 -52.4375 56.125 -50.4375 54.47265625 C-47.53111951 51.06106509 -47.69793713 47.91988262 -47.4375 43.5625 C-46.31513801 30.62171793 -42.39851142 18.24864674 -32.5 9.25 C-22.06560189 0.81916503 -13.12351788 -0.17224203 0 0 Z " fill="#F51D42" transform="translate(475.4375,735.875)"/>
<path d="M0 0 C13.04454645 -0.1183055 25.98818941 0.03360558 39 1 C39 1.66 39 2.32 39 3 C37.35 3.33 35.7 3.66 34 4 C29.91759522 16.24721433 34.65545985 31.70894184 36.75 44 C37.10246425 46.12354844 37.45403221 48.24724585 37.8046875 50.37109375 C39.6441714 61.43015446 41.59517018 72.46003291 43.79388428 83.45385742 C43.95245911 84.25927979 44.11103394 85.06470215 44.27441406 85.89453125 C44.41494202 86.59425049 44.55546997 87.29396973 44.70025635 88.01489258 C45 90 45 90 45 94 C45.66 94 46.32 94 47 94 C46.94328125 93.00355469 46.8865625 92.00710938 46.828125 90.98046875 C46.83360334 84.72831721 48.18623935 78.64204758 49.33660889 72.52108765 C51.5966662 60.446482 53.6582433 48.35160367 55.375 36.1875 C55.54225586 35.04643799 55.70951172 33.90537598 55.88183594 32.72973633 C57.54390382 21.37454406 57.54390382 21.37454406 57 10 C54.75040784 7.16989689 53.44900741 6.14966914 50 5 C50 3.68 50 2.36 50 1 C60.395 0.505 60.395 0.505 71 0 C69 4 69 4 66.9765625 5.58203125 C63.8101719 9.4555407 63.87139617 13.81880225 63.375 18.6875 C63.19843872 20.22277344 63.19843872 20.22277344 63.01831055 21.7890625 C62.78017087 23.86949744 62.54893039 25.95073407 62.32470703 28.03271484 C62.03181011 30.7093082 61.71068753 33.37977662 61.37109375 36.05078125 C60.57322458 42.39930879 59.89257659 48.58764883 60 55 C61.32 55.66 62.64 56.32 64 57 C64 57.66 64 58.32 64 59 C63.05769531 59.22816406 62.11539063 59.45632813 61.14453125 59.69140625 C57.39010227 62.44776342 57.36957636 63.33733288 56.57421875 67.77734375 C56.25088138 70.16045992 55.95643963 72.54763364 55.6875 74.9375 C55.53216797 76.11119141 55.37683594 77.28488281 55.21679688 78.49414062 C54.35684122 85.17079207 53.74374321 91.8301427 53.37915039 98.55200195 C53 101 53 101 50.75 104.25 C45.83976859 107.41674344 39.54461801 106.73115842 34 106 C28.48925527 104.36847243 25.21650745 101.79806817 22 97 C21.05859375 93.609375 21.05859375 93.609375 20.4375 89.75 C20.26154297 88.71903198 20.26154297 88.71903198 20.08203125 87.66723633 C19.70520817 85.44713708 19.34988329 83.22449606 19 81 C18.63026206 78.64955789 18.25762281 76.29993244 17.87133789 73.95214844 C17.628148 72.46902584 17.39641493 70.98396841 17.17749023 69.49707031 C16.709554 66.62578343 16.33141163 64.43358948 14.54296875 62.09375 C12.77451607 60.84016329 10.97658772 59.88605656 9 59 C10 56 10 56 13 54 C13.53143057 48.45191808 12.44479006 43.25853878 11.3203125 37.85546875 C11.14748749 37.00447098 10.97466248 36.15347321 10.79660034 35.27668762 C10.43177496 33.49015518 10.06348221 31.70432764 9.69189453 29.91918945 C9.1235784 27.18064977 8.57091943 24.43925778 8.01953125 21.69726562 C7.66239224 19.95814129 7.30435112 18.21920191 6.9453125 16.48046875 C6.78064484 15.65967331 6.61597717 14.83887787 6.44631958 13.99320984 C5.60324009 9.56016322 5.60324009 9.56016322 3 6 C0.93125966 5.3574765 0.93125966 5.3574765 -1 5 C-0.67 3.35 -0.34 1.7 0 0 Z " fill="#F41D42" transform="translate(169,735)"/>
<path d="M0 0 C1.12664063 0.0309375 2.25328125 0.061875 3.4140625 0.09375 C5.09628906 0.10921875 5.09628906 0.10921875 6.8125 0.125 C11.34756174 0.78384674 13.96268881 2.51737631 17.1640625 5.71875 C22.83407694 14.41277214 22.50729762 23.3863417 22.43017578 33.36669922 C22.41418794 35.82446597 22.43002939 38.28056656 22.44921875 40.73828125 C22.47174985 57.19190286 19.9042962 75.17406612 8.0390625 87.59375 C3.32749262 91.74883525 -1.45208439 95.59375 -7.9609375 95.59375 C-8.00758796 86.07404173 -8.04297099 76.55437373 -8.06456184 67.03457546 C-8.07493221 62.6126084 -8.08896569 58.19072041 -8.11181641 53.76879883 C-8.13378853 49.48937787 -8.14555662 45.21003224 -8.15069199 40.93055916 C-8.15434456 39.31015909 -8.16147479 37.68976243 -8.17239761 36.06939507 C-8.39465416 1.68336073 -8.39465416 1.68336073 0 0 Z " fill="#0C0A0A" transform="translate(810.9609375,740.40625)"/>
<path d="M0 0 C0.66 0.66 1.32 1.32 2 2 C0.87548273 4.9719385 -0.22293791 7.33440687 -2 10 C-2.28875 11.051875 -2.5775 12.10375 -2.875 13.1875 C-3.94790782 16.8234654 -5.32395531 19.82986676 -7.06640625 23.16796875 C-8.07460445 25.06795383 -8.07460445 25.06795383 -8.9375 27.4375 C-11.53321101 33.6977442 -15.19277229 39.41606602 -19 45 C-19.64775391 46.10988281 -19.64775391 46.10988281 -20.30859375 47.2421875 C-22.73763397 51.20270111 -25.49494596 54.90689779 -28.24023438 58.65234375 C-28.87735352 59.53212891 -28.87735352 59.53212891 -29.52734375 60.4296875 C-29.90624756 60.94772949 -30.28515137 61.46577148 -30.67553711 61.99951172 C-32.15478582 64.17324619 -32.15478582 64.17324619 -33.8112793 67.30664062 C-35.98322605 71.13537206 -38.5893711 74.36733058 -41.4921875 77.6640625 C-42.04727997 78.29873444 -42.60237244 78.93340637 -43.17428589 79.58731079 C-50.60173895 87.95518201 -58.53847515 95.83731079 -66.46630859 103.72705078 C-69.13484263 106.38480287 -71.792433 109.05316563 -74.44921875 111.72265625 C-94.48271006 131.77390982 -94.48271006 131.77390982 -105 138 C-107.08649443 139.53957584 -109.14379796 141.09364451 -111.1875 142.6875 C-111.75629883 143.12666748 -112.32509766 143.56583496 -112.91113281 144.01831055 C-116.40641689 146.72602851 -119.83619893 149.50239145 -123.25 152.3125 C-126.82044906 155.19060237 -130.37736185 157.40015617 -134.43359375 159.51171875 C-138.53467778 161.88997296 -142.3119683 164.71588779 -146.12792969 167.52294922 C-148.99865748 169.62389548 -151.7751534 171.49791913 -155 173 C-155.99 173.66 -156.98 174.32 -158 175 C-161 177 -161 177 -162.8828125 177.9375 C-165.31045905 179.15580233 -167.56991797 180.56381182 -169.875 182 C-173.53930106 184.20927933 -176.85669273 185.85397884 -181 187 C-181.99580078 187.38478516 -181.99580078 187.38478516 -183.01171875 187.77734375 C-189.98172974 190.41694652 -196.76666201 191.05248034 -204 189 C-204 188.01 -204 187.02 -204 186 C-205.01320313 185.87044922 -205.01320313 185.87044922 -206.046875 185.73828125 C-213.47426735 184.56835962 -213.47426735 184.56835962 -216.3125 181.5 C-216.869375 180.675 -217.42625 179.85 -218 179 C-219.6513799 178.29631922 -221.32102373 177.63502827 -223 177 C-224.79151863 176.03754912 -226.56294309 175.03677447 -228.3125 174 C-229.63701172 173.2265625 -229.63701172 173.2265625 -230.98828125 172.4375 C-231.65214844 171.963125 -232.31601562 171.48875 -233 171 C-233 170.34 -233 169.68 -233 169 C-233.8971875 168.7834375 -233.8971875 168.7834375 -234.8125 168.5625 C-236.56150404 168.1127561 -238.28677023 167.57107659 -240 167 C-240 166.34 -240 165.68 -240 165 C-241.32 165 -242.64 165 -244 165 C-244 164.34 -244 163.68 -244 163 C-245.3921875 162.5978125 -245.3921875 162.5978125 -246.8125 162.1875 C-249.82445764 161.06539813 -250.96347496 160.3420038 -253 158 C-253.66 157.67 -254.32 157.34 -255 157 C-255 156.34 -255 155.68 -255 155 C-255.99 155 -256.98 155 -258 155 C-258 154.34 -258 153.68 -258 153 C-259.65 152.67 -261.3 152.34 -263 152 C-263 151.34 -263 150.68 -263 150 C-263.66 150 -264.32 150 -265 150 C-265 149.34 -265 148.68 -265 148 C-266.32 147.67 -267.64 147.34 -269 147 C-269 146.34 -269 145.68 -269 145 C-269.763125 144.71125 -270.52625 144.4225 -271.3125 144.125 C-274 143 -274 143 -277 141 C-277 140.34 -277 139.68 -277 139 C-278.3921875 138.5978125 -278.3921875 138.5978125 -279.8125 138.1875 C-282.97046912 137.0110017 -283.77501603 136.3151099 -286 134 C-287.27700244 133.02221152 -288.56966842 132.06463558 -289.875 131.125 C-293.22305916 128.64743622 -296.08721284 125.98560684 -299 123 C-303.08183011 119.25909024 -307.3038841 115.7552233 -311.6875 112.375 C-322.13199447 104.05154133 -331.78009799 94.28692692 -339 83 C-339 82.34 -339 81.68 -339 81 C-339.99 80.67 -340.98 80.34 -342 80 C-347 74.53488372 -347 74.53488372 -347 72 C-347.66 72 -348.32 72 -349 72 C-349.66 70.35 -350.32 68.7 -351 67 C-351.66 67 -352.32 67 -353 67 C-353.33 65.68 -353.66 64.36 -354 63 C-350.05091849 65.9364965 -347.09013504 69.03461232 -344.05078125 72.91015625 C-339.13238235 78.98246987 -333.78807046 84.51624554 -328.24414062 90.01660156 C-326.62653713 91.62347307 -325.01993087 93.24078494 -323.4140625 94.859375 C-317.66321676 100.61752491 -311.77964324 105.99803647 -305.40771484 111.078125 C-302.87807052 113.09732598 -300.44764993 115.20129705 -298.02392578 117.34472656 C-277.63677688 135.30841111 -254.41504592 150.31623626 -231 164 C-228.5336727 165.44531042 -226.0767406 166.90510399 -223.625 168.375 C-222.56539062 169.00148438 -221.50578125 169.62796875 -220.4140625 170.2734375 C-218 172 -218 172 -217 175 C-213.85483455 177.31368493 -210.41976702 179.12348617 -207 181 C-205.906875 181.61875 -204.81375 182.2375 -203.6875 182.875 C-193.29797153 186.04468665 -184.39978736 183.9267851 -175 179 C-171.59749826 177.10335278 -168.30044998 175.06775179 -165 173 C-162.83885468 171.69911641 -160.67207174 170.40755665 -158.5 169.125 C-156.99953125 168.23167969 -156.99953125 168.23167969 -155.46875 167.3203125 C-153 166 -153 166 -151 166 C-151 165.34 -151 164.68 -151 164 C-150.21625 163.649375 -149.4325 163.29875 -148.625 162.9375 C-144.71037829 160.98477301 -141.26459542 158.43149988 -137.71484375 155.890625 C-134.98858782 153.99205253 -132.20345367 152.24179394 -129.375 150.5 C-125.30217506 147.93815335 -121.81241481 145.17949744 -118.27734375 141.93359375 C-115.40879494 139.49803344 -112.34037576 137.38907458 -109.25 135.25 C-103.27925808 131.08816167 -97.94106471 126.5131374 -92.66015625 121.515625 C-90.50042687 119.47323775 -88.31517357 117.50008144 -86.0625 115.5625 C-77.89951384 108.45610077 -69.79219847 101.30488865 -62.78125 93.03515625 C-60.62803514 90.57501383 -58.31683912 88.30640291 -56 86 C-54.27847128 84.17905169 -52.57017263 82.34550904 -50.875 80.5 C-50.02679687 79.5821875 -49.17859375 78.664375 -48.3046875 77.71875 C-46.20081082 75.2368887 -44.61807186 72.80934795 -43 70 C-41.33752986 67.99651034 -39.67067133 65.99665598 -38 64 C-37.25752207 62.88374037 -36.52758776 61.75900111 -35.8125 60.625 C-35.214375 59.75875 -34.61625 58.8925 -34 58 C-33.34 58 -32.68 58 -32 58 C-31.6596875 57.2265625 -31.6596875 57.2265625 -31.3125 56.4375 C-29.82854277 53.68157942 -28.06812448 51.25588562 -26.2265625 48.73046875 C-24.88639475 46.88839322 -24.88639475 46.88839322 -23.4375 44.375 C-22 42 -22 42 -20.1171875 39.75 C-17.8634827 36.82267863 -16.30773275 33.94280358 -14.6875 30.625 C-14.39335205 30.02429688 -14.0992041 29.42359375 -13.79614258 28.8046875 C-12.85540934 26.87385311 -11.92631184 24.93779077 -11 23 C-10.6803125 22.33452148 -10.360625 21.66904297 -10.03125 20.98339844 C-9.07725903 18.99174996 -8.13055327 16.99684857 -7.1875 15 C-6.75280396 14.08468506 -6.75280396 14.08468506 -6.30932617 13.15087891 C-4.60556535 9.50046469 -3.20134287 5.8442972 -2 2 C-1.34 2 -0.68 2 0 2 C0 1.34 0 0.68 0 0 Z " fill="#250C10" transform="translate(706,489)"/>
<path d="M0 0 C3.20281634 2.88253471 4.340665 4.76011426 4.80078125 9.0625 C4.84442991 20.93493669 3.05151518 31.72999996 -4.5 41.25 C-9.5280234 45.9970161 -15.4456555 50.25 -22.5 50.25 C-22.55016131 45.78834423 -22.58607179 41.32684626 -22.60986328 36.86499023 C-22.61980161 35.35324233 -22.63335698 33.84151301 -22.65087891 32.32983398 C-22.9311893 7.48938632 -22.9311893 7.48938632 -18.5 0.25 C-12.96431126 -3.20980546 -5.63552123 -2.81776062 0 0 Z " fill="#0D0A0A" transform="translate(729.5,739.75)"/>
<path d="M0 0 C3.72070823 1.24023608 4.62521091 2.95730148 7 6 C7.99 6.66 8.98 7.32 10 8 C12.20608565 12.06253292 12.28315466 15.9618972 12.25396729 20.47895813 C12.25708727 21.22331484 12.26020725 21.96767154 12.26342177 22.73458451 C12.27138773 25.22458588 12.26508334 27.71434259 12.25878906 30.2043457 C12.2614998 31.99190921 12.2650612 33.77947159 12.26940918 35.56703186 C12.27853281 40.42305493 12.27498709 45.27899306 12.26865101 50.13501763 C12.26358228 55.22845705 12.26828569 60.32188927 12.27142334 65.41532898 C12.27506407 73.98075664 12.27026487 82.54614984 12.26074219 91.11157227 C12.24989564 100.98103345 12.25335504 110.85041175 12.264395 120.71987087 C12.27351059 129.2118784 12.27473122 137.70386115 12.26951766 146.19587201 C12.26641642 151.25896031 12.26593663 156.32200986 12.27259064 161.3850956 C12.27842443 166.15806197 12.27425838 170.93092323 12.26280212 175.7038784 C12.26018582 177.44355979 12.26086786 179.18325022 12.26532745 180.92292786 C12.32927208 208.43308186 12.32927208 208.43308186 7 220 C6.29692667 222.25730506 6.29692667 222.25730506 5.8671875 224.33203125 C5.70089844 225.06744141 5.53460937 225.80285156 5.36328125 226.56054688 C5.20214844 227.30369141 5.04101562 228.04683594 4.875 228.8125 C3.1107739 236.7784522 3.1107739 236.7784522 2 239 C1.34 239 0.68 239 0 239 C-0.09796875 239.556875 -0.1959375 240.11375 -0.296875 240.6875 C-1.41146022 246.37572804 -3.20453935 250.9501356 -6 256 C-6.50273438 256.94875 -7.00546875 257.8975 -7.5234375 258.875 C-11.70181564 266.70181564 -11.70181564 266.70181564 -14 269 C-13.47991578 264.52727571 -12.31972543 261.80434971 -10 258 C-9.2863409 255.68060793 -8.6252708 253.34476551 -8 251 C-7.0301809 247.98971991 -6.01841914 244.99415228 -5 242 C-4.34 242 -3.68 242 -3 242 C-2.87625 241.29875 -2.7525 240.5975 -2.625 239.875 C-2 237 -2 237 -1 234.125 C0.07719698 230.75875943 0.52036703 227.49446878 1 224 C1.33 223.67 1.66 223.34 2 223 C2.02109533 221.56250382 1.99020135 220.12418467 1.9375 218.6875 C1.88874782 213.76352951 2.53841891 209.2165794 3.421875 204.3828125 C4.11100399 200.35047667 4.62974868 196.30998226 5.125 192.25 C5.21249512 191.53376465 5.29999023 190.8175293 5.39013672 190.07958984 C5.59540627 188.38663234 5.79800129 186.69335088 6 185 C6.66 185 7.32 185 8 185 C7.89287782 162.86926114 7.78013767 140.7385573 7.66066074 118.60788155 C7.60532065 108.33283768 7.55183737 98.05779033 7.50268555 87.78271484 C7.45985333 78.8297146 7.41357779 69.87674001 7.36312145 60.92377937 C7.33651275 56.18078342 7.31165949 51.43779258 7.29092598 46.694767 C7.27137479 42.23463411 7.2472356 37.77455008 7.21950912 33.31446075 C7.21013063 31.6737265 7.20245823 30.03298152 7.19658089 28.39223099 C7.18833323 26.1595555 7.17406044 23.92699903 7.15821838 21.69436646 C7.15176583 20.44257158 7.14531328 19.19077671 7.1386652 17.90104866 C7.19868521 15.06070354 7.19868521 15.06070354 6 13 C5.960008 11.00039988 5.95653201 8.99952758 6 7 C5.01 7 4.02 7 3 7 C0 2.77777778 0 2.77777778 0 0 Z " fill="#410E17" transform="translate(704,252)"/>
<path d="M0 0 C3.94908151 2.9364965 6.90986496 6.03461232 9.94921875 9.91015625 C14.86761765 15.98246987 20.21192954 21.51624554 25.75585938 27.01660156 C27.37346287 28.62347307 28.98006913 30.24078494 30.5859375 31.859375 C36.33678324 37.61752491 42.22035676 42.99803647 48.59228516 48.078125 C51.12192948 50.09732598 53.55235007 52.20129705 55.97607422 54.34472656 C76.36322312 72.30841111 99.58495408 87.31623626 123 101 C125.4663273 102.44531042 127.9232594 103.90510399 130.375 105.375 C131.43460938 106.00148438 132.49421875 106.62796875 133.5859375 107.2734375 C136 109 136 109 137 112 C140.14516545 114.31368493 143.58023298 116.12348617 147 118 C148.093125 118.61875 149.18625 119.2375 150.3125 119.875 C159.14606494 122.56998591 167.57945878 121.4253049 176 118 C172.21933485 122.36230595 168.9564064 123.72517912 163.2265625 124.2578125 C157.25155234 124.48356855 152.86471073 124.1211717 147.71875 120.97265625 C145.9993184 119.89313611 145.9993184 119.89313611 143.84375 119.49609375 C143.2353125 119.33238281 142.626875 119.16867187 142 119 C141.67 118.34 141.34 117.68 141 117 C139.11187666 116.49600691 139.11187666 116.49600691 136.875 116.1875 C132.59404024 115.33675283 129.90593531 113.85476644 126.5078125 111.17578125 C124.78441445 109.83188796 122.99773731 108.87900442 121 108 C121 107.34 121 106.68 121 106 C120.1028125 105.7834375 120.1028125 105.7834375 119.1875 105.5625 C117.43849596 105.1127561 115.71322977 104.57107659 114 104 C114 103.34 114 102.68 114 102 C112.68 102 111.36 102 110 102 C110 101.34 110 100.68 110 100 C108.6078125 99.5978125 108.6078125 99.5978125 107.1875 99.1875 C104.17554236 98.06539813 103.03652504 97.3420038 101 95 C100.34 94.67 99.68 94.34 99 94 C99 93.34 99 92.68 99 92 C98.01 92 97.02 92 96 92 C96 91.34 96 90.68 96 90 C94.35 89.67 92.7 89.34 91 89 C91 88.34 91 87.68 91 87 C90.34 87 89.68 87 89 87 C89 86.34 89 85.68 89 85 C87.02 84.505 87.02 84.505 85 84 C85 83.34 85 82.68 85 82 C84.236875 81.71125 83.47375 81.4225 82.6875 81.125 C80 80 80 80 77 78 C77 77.34 77 76.68 77 76 C75.6078125 75.5978125 75.6078125 75.5978125 74.1875 75.1875 C71.02953088 74.0110017 70.22498397 73.3151099 68 71 C66.72299756 70.02221152 65.43033158 69.06463558 64.125 68.125 C60.77694084 65.64743622 57.91278716 62.98560684 55 60 C50.91816989 56.25909024 46.6961159 52.7552233 42.3125 49.375 C31.86800553 41.05154133 22.21990201 31.28692692 15 20 C15 19.34 15 18.68 15 18 C14.01 17.67 13.02 17.34 12 17 C7 11.53488372 7 11.53488372 7 9 C6.34 9 5.68 9 5 9 C4.34 7.35 3.68 5.7 3 4 C2.34 4 1.68 4 1 4 C0.67 2.68 0.34 1.36 0 0 Z " fill="#340D14" transform="translate(352,552)"/>
<path d="M0 0 C0.99 0 1.98 0 3 0 C3.17128418 1.17393311 3.34256836 2.34786621 3.51904297 3.55737305 C4.1633958 7.97264854 4.80841167 12.38782698 5.45361328 16.80297852 C5.73113389 18.70269227 6.00848203 20.60243123 6.28564453 22.50219727 C6.68735548 25.25543998 7.08970282 28.00858905 7.4921875 30.76171875 C7.68757111 32.10168411 7.68757111 32.10168411 7.88690186 33.46871948 C8.76385352 39.46043583 9.68865856 45.44201046 10.67236328 51.41723633 C11 54 11 54 11 59 C3.08 59 -4.84 59 -13 59 C-11.67030509 52.35152545 -10.3205107 45.71234612 -8.90625 39.08203125 C-8.61796326 37.72980721 -8.61796326 37.72980721 -8.32385254 36.3502655 C-7.92087838 34.46202474 -7.51751321 32.57386739 -7.11376953 30.68579102 C-6.49943809 27.80986946 -5.88838992 24.93326174 -5.27734375 22.05664062 C-4.88301549 20.21089412 -4.48849101 18.36518953 -4.09375 16.51953125 C-3.91348267 15.66833206 -3.73321533 14.81713287 -3.54748535 13.94013977 C-2.53584236 9.23065289 -1.38078683 4.61516364 0 0 Z " fill="#120A0C" transform="translate(618,737)"/>
<path d="M0 0 C0.66 0 1.32 0 2 0 C3.68921825 9.85209481 5.21748144 19.72780465 6.71435547 29.6105957 C6.98952934 31.42114817 7.26689562 33.23136871 7.54638672 35.04125977 C7.95520725 37.68952949 8.35722906 40.33875459 8.7578125 42.98828125 C8.88278107 43.78945877 9.00774963 44.59063629 9.13650513 45.41609192 C9.25017426 46.17766098 9.36384338 46.93923004 9.48095703 47.72387695 C9.58151398 48.38273392 9.68207092 49.04159088 9.78567505 49.72041321 C10.07529517 52.80084875 10 55.90597949 10 59 C2.41 59 -5.18 59 -13 59 C-12.39652583 54.17220665 -11.82237587 49.76662877 -10.765625 45.0859375 C-10.52352295 44.00497803 -10.2814209 42.92401855 -10.03198242 41.81030273 C-9.77392822 40.67665283 -9.51587402 39.54300293 -9.25 38.375 C-8.98485596 37.1981665 -8.71971191 36.02133301 -8.4465332 34.80883789 C-7.90105304 32.39025477 -7.35393128 29.9720413 -6.80517578 27.55419922 C-6.03947583 24.17425381 -5.28201443 20.79257895 -4.52734375 17.41015625 C-4.08096225 15.41921856 -3.63435977 13.4283304 -3.1875 11.4375 C-2.98092773 10.51050293 -2.77435547 9.58350586 -2.56152344 8.62841797 C-2.27390137 7.35635498 -2.27390137 7.35635498 -1.98046875 6.05859375 C-1.81442139 5.31923584 -1.64837402 4.57987793 -1.47729492 3.81811523 C-1 2 -1 2 0 0 Z " fill="#100A0B" transform="translate(278,737)"/>
<path d="M0 0 C1.65 0 3.3 0 5 0 C5 0.66 5 1.32 5 2 C5.57355539 2.18532382 6.14711079 2.37064764 6.73804665 2.56158733 C12.15197734 6.00439329 15.01344149 14.0746902 17 20 C18.24526755 25.85900753 18.04010316 31.80887762 17.93994141 37.76635742 C17.94096207 39.48159822 17.94549307 41.19683989 17.95321655 42.9120636 C17.9639468 47.51992499 17.92553163 52.12614435 17.87701464 56.73371291 C17.83403703 61.58286202 17.83559643 66.43201703 17.83163452 71.28132629 C17.81878911 79.41724433 17.77648589 87.55255554 17.71337891 95.68823242 C17.63273001 106.09840653 17.59797771 116.50818665 17.57876015 126.91863537 C17.5620979 135.9154133 17.52766107 144.9121097 17.48868513 153.90881562 C17.4806144 155.82896256 17.47313121 157.74911206 17.46624041 159.6692636 C17.44653735 165.14484701 17.41728751 170.62020127 17.37256241 176.09564018 C17.36043615 177.74626864 17.35147103 179.39692416 17.34607697 181.04758835 C17.31555035 189.59522098 16.97052693 197.87525885 15.47388268 206.32164478 C15.0465815 208.73672425 14.7486338 211.12390142 14.5 213.5625 C14.04876958 216.66470912 13.43418004 218.31091243 12 221 C11.6451046 222.99628664 11.31421071 224.99690671 11 227 C9.74792843 231.91885261 8.07157837 236.38602999 6 241 C5.67 241 5.34 241 5 241 C5.67105695 232.94731663 6.44179998 223.83730003 11 217 C13.27251086 205.56633546 13.28854157 193.97870735 13.25878906 182.37231445 C13.26150666 180.56528076 13.26507187 178.75824818 13.26940918 176.95121765 C13.27843691 172.09658411 13.27503107 167.24203665 13.26865101 162.38740182 C13.2635493 157.28887992 13.26829317 152.19036487 13.27142334 147.09184265 C13.27504728 138.54599699 13.27030155 130.00018607 13.26074219 121.4543457 C13.24982227 111.57818792 13.2534151 101.70211249 13.264395 91.82595664 C13.27346711 83.32455754 13.27475467 74.82318323 13.26951766 66.32178086 C13.26640247 61.25305878 13.26597703 56.18437548 13.27259064 51.1156559 C13.27836369 46.3606345 13.27436799 41.60571978 13.26280212 36.85070992 C13.26015697 35.1063988 13.26091816 33.3620787 13.26532745 31.61777115 C13.27078907 29.23804538 13.26394185 26.85866205 13.25396729 24.47895813 C13.25842873 23.78850177 13.26289017 23.0980454 13.26748681 22.38666612 C13.23579772 18.49178146 12.83553348 15.45757798 11 12 C9.55659593 10.74904981 8.10815205 9.50108819 6.59765625 8.33203125 C4.00652812 6.17170193 2.0597202 3.66552026 0 1 C0 0.67 0 0.34 0 0 Z " fill="#210C10" transform="translate(702,248)"/>
<path d="M0 0 C3.8601978 1.2867326 5.79278334 3.70738638 8 7 C10.02201469 11.13829772 10.25122773 14.53492073 10.25396729 19.11709595 C10.25864726 20.175328 10.25864726 20.175328 10.26342177 21.25493848 C10.27138389 23.61356671 10.26508477 25.97193636 10.25878906 28.33056641 C10.26150006 30.02459361 10.26506161 31.71861964 10.26940918 33.41264343 C10.27853221 38.01474534 10.27498668 42.61675761 10.26865101 47.2188611 C10.26357902 52.05064411 10.26828687 56.88241956 10.27142334 61.71420288 C10.27506437 69.84333669 10.2702654 77.9724342 10.26074219 86.1015625 C10.24990861 95.45632385 10.25334536 104.81099767 10.264395 114.16575682 C10.27352549 122.22214645 10.27472368 130.27850998 10.26951766 138.33490312 C10.2664228 143.13483951 10.26591831 147.93473507 10.27259064 152.73466873 C10.27844585 157.26387595 10.2742208 161.79297283 10.26280212 166.32216835 C10.26019637 167.96867377 10.26084889 169.61518875 10.26532745 171.26169014 C10.28691812 180.01956071 9.97977686 188.66519113 9.10882568 197.38388062 C9.03135424 198.18664417 8.95388279 198.98940772 8.87406373 199.81649745 C8.45558004 203.61844207 7.93058105 206.68611191 6 210 C5.61709538 211.99110401 5.27395385 213.99100513 5 216 C4.01 215.67 3.02 215.34 2 215 C2.43140858 210.47020988 2.91508762 206.10811314 4 201.6875 C5.30633913 196.18917708 5.63819999 190.62694232 6 185 C6.66 185 7.32 185 8 185 C7.89287782 162.86926114 7.78013767 140.7385573 7.66066074 118.60788155 C7.60532065 108.33283768 7.55183737 98.05779033 7.50268555 87.78271484 C7.45985333 78.8297146 7.41357779 69.87674001 7.36312145 60.92377937 C7.33651275 56.18078342 7.31165949 51.43779258 7.29092598 46.694767 C7.27137479 42.23463411 7.2472356 37.77455008 7.21950912 33.31446075 C7.21013063 31.6737265 7.20245823 30.03298152 7.19658089 28.39223099 C7.18833323 26.1595555 7.17406044 23.92699903 7.15821838 21.69436646 C7.15176583 20.44257158 7.14531328 19.19077671 7.1386652 17.90104866 C7.19868521 15.06070354 7.19868521 15.06070354 6 13 C5.960008 11.00039988 5.95653201 8.99952758 6 7 C5.01 7 4.02 7 3 7 C0 2.77777778 0 2.77777778 0 0 Z " fill="#61111F" transform="translate(704,252)"/>
<path d="M0 0 C0.33 0.66 0.66 1.32 1 2 C0.52949219 2.51949219 0.05898438 3.03898438 -0.42578125 3.57421875 C-1.04839844 4.27160156 -1.67101562 4.96898437 -2.3125 5.6875 C-2.92738281 6.37199219 -3.54226563 7.05648437 -4.17578125 7.76171875 C-6.05241437 9.94862797 -6.05241437 9.94862797 -7.42578125 12.42578125 C-9.28179091 15.46079457 -11.46147852 17.88840837 -13.875 20.5 C-14.71804688 21.4178125 -15.56109375 22.335625 -16.4296875 23.28125 C-18.09905758 25.04702747 -19.79336816 26.78967234 -21.515625 28.50390625 C-24.06949119 31.06981898 -26.4677203 33.7339974 -28.875 36.4375 C-35.48618497 43.748489 -42.70686128 50.38014223 -50 57 C-50.72832031 57.66644531 -51.45664062 58.33289063 -52.20703125 59.01953125 C-61.46845924 67.3124439 -71.39047622 74.96641158 -81.5 82.1875 C-84.71700942 84.51983183 -87.82784237 86.97437573 -90.9296875 89.45703125 C-93.19948936 91.14867603 -95.57099334 92.54779571 -98 94 C-100.51811498 95.80202603 -103.01168198 97.63365197 -105.5 99.4765625 C-108.0693603 101.04226643 -110.03892586 101.6087152 -113 102 C-113 102.66 -113 103.32 -113 104 C-114.80078125 105.296875 -114.80078125 105.296875 -117.3125 106.75 C-118.21871094 107.27722656 -119.12492188 107.80445313 -120.05859375 108.34765625 C-123.86351926 110.48508452 -127.69730055 112.56431502 -131.5546875 114.60546875 C-133.99408738 115.92405516 -133.99408738 115.92405516 -136.01171875 117.5390625 C-143.60740622 123.12017667 -152.88350685 123.98327023 -162 123 C-168.15759859 121.1214106 -173.54979656 117.38855707 -179 114 C-175.52176885 112.84058962 -173.54104422 113.29179116 -170 114 C-170 114.66 -170 115.32 -170 116 C-163.24223015 119.07171357 -156.18836934 119.84431114 -149 118 C-145.85332514 116.59691942 -142.83226171 115.03969541 -139.79296875 113.41796875 C-136.61290499 111.80347484 -133.43104053 110.94185426 -130 110 C-128.20493889 109.07207902 -126.4890367 108.05584811 -124.76171875 107.0078125 C-122.98409072 105.99089891 -121.20923445 105.20589989 -119.3125 104.4375 C-116.38443304 103.16682943 -114.50863889 101.89214918 -112 100 C-110.55444576 99.18523306 -109.095518 98.39379713 -107.625 97.625 C-104.800609 96.08819902 -102.29645388 94.5530175 -99.875 92.4375 C-97 90 -97 90 -93.74609375 88.1796875 C-89.91349541 86.03301082 -86.58765023 83.45496344 -83.1875 80.6875 C-78.20468891 76.68468406 -73.15109028 72.93382727 -67.79296875 69.4375 C-65.70991497 68.03367735 -65.70991497 68.03367735 -65 65 C-63.74316406 64.40445313 -63.74316406 64.40445313 -62.4609375 63.796875 C-57.75042251 61.35123516 -54.40363552 57.93450581 -50.625 54.25 C-49.18103484 52.85797603 -47.73572837 51.46734204 -46.2890625 50.078125 C-45.57588867 49.39186035 -44.86271484 48.7055957 -44.12792969 47.99853516 C-42.10573656 46.09930696 -40.0363126 44.28114601 -37.9296875 42.4765625 C-33.84205291 38.93750236 -30.16198721 35.09757656 -26.5 31.125 C-25.84999023 30.42463623 -25.19998047 29.72427246 -24.53027344 29.00268555 C-22.68173915 27.00642572 -20.83978849 25.00431815 -19 23 C-17.69289063 21.58267578 -17.69289063 21.58267578 -16.359375 20.13671875 C-12.65564658 16.07922035 -12.65564658 16.07922035 -9.55859375 11.5625 C-7.88131777 8.80487333 -5.98336965 6.57189782 -3.8125 4.1875 C-2.73935547 3.00220703 -2.73935547 3.00220703 -1.64453125 1.79296875 C-0.83048828 0.90544922 -0.83048828 0.90544922 0 0 Z " fill="#500F1B" transform="translate(668,551)"/>
<path d="M0 0 C5.06413158 1.26603289 6.93967282 2.85375027 10 7 C13.69188073 10.39253905 17.38436758 12.10429383 22 14 C24.9375 15.5625 24.9375 15.5625 27 17 C27 17.66 27 18.32 27 19 C27.721875 19.226875 28.44375 19.45375 29.1875 19.6875 C32.54020878 21.25209743 34.43122769 23.36536173 37 26 C38.31747324 26.69748583 39.64914193 27.36959957 41 28 C42 29 43 30 44 31 C45.97133986 32.37535339 47.97681922 33.70211044 50 35 C50.62261719 35.40476562 51.24523437 35.80953125 51.88671875 36.2265625 C57.05876874 39.53911318 62.39839218 42.27210313 67.9296875 44.92578125 C72.63026144 47.2194348 77.0682539 49.82428396 81.53515625 52.54296875 C91.03173612 58.15663641 99.77215993 60.93596237 110.85546875 58.328125 C112.93101719 57.62857608 114.97116564 56.82528855 117 56 C113.21933485 60.36230595 109.9564064 61.72517912 104.2265625 62.2578125 C98.25155234 62.48356855 93.86471073 62.1211717 88.71875 58.97265625 C86.9993184 57.89313611 86.9993184 57.89313611 84.84375 57.49609375 C84.2353125 57.33238281 83.626875 57.16867187 83 57 C82.67 56.34 82.34 55.68 82 55 C80.11187666 54.49600691 80.11187666 54.49600691 77.875 54.1875 C73.59404024 53.33675283 70.90593531 51.85476644 67.5078125 49.17578125 C65.78441445 47.83188796 63.99773731 46.87900442 62 46 C62 45.34 62 44.68 62 44 C61.401875 43.855625 60.80375 43.71125 60.1875 43.5625 C58.43849596 43.1127561 56.71322977 42.57107659 55 42 C55 41.34 55 40.68 55 40 C53.68 40 52.36 40 51 40 C51 39.34 51 38.68 51 38 C50.071875 37.731875 49.14375 37.46375 48.1875 37.1875 C45.17554236 36.06539813 44.03652504 35.3420038 42 33 C41.01 32.505 41.01 32.505 40 32 C40 31.34 40 30.68 40 30 C39.01 30 38.02 30 37 30 C37 29.34 37 28.68 37 28 C35.35 27.67 33.7 27.34 32 27 C32 26.34 32 25.68 32 25 C31.34 25 30.68 25 30 25 C30 24.34 30 23.68 30 23 C28.68 22.67 27.36 22.34 26 22 C26 21.34 26 20.68 26 20 C25.236875 19.71125 24.47375 19.4225 23.6875 19.125 C21 18 21 18 18 16 C18 15.34 18 14.68 18 14 C17.071875 13.731875 16.14375 13.46375 15.1875 13.1875 C12.02143782 12.00798664 11.23571373 11.31415982 9 9 C6.93980804 7.46086826 4.84562172 5.97933835 2.7421875 4.5 C1 3 1 3 0 0 Z " fill="#3A0E15" transform="translate(411,614)"/>
<path d="M0 0 C1.65 0 3.3 0 5 0 C5 0.66 5 1.32 5 2 C5.5938468 2.23665721 6.1876936 2.47331442 6.79953575 2.71714306 C11.39028051 5.39351864 13.26153718 10.15367931 15 15 C15.82081895 20.87668284 15.7617462 26.66586799 15.68115234 32.58862305 C15.67945709 34.34391725 15.68041538 36.0992157 15.68380737 37.85450745 C15.68551964 42.58962112 15.65039524 47.32381151 15.60836363 52.05871177 C15.57070051 57.01808143 15.56731903 61.97747533 15.56021118 66.93696594 C15.54160796 76.31495054 15.49243245 85.6925124 15.43211424 95.07031137 C15.36490793 105.75228641 15.33202465 116.43428229 15.30194163 127.11641634 C15.23932919 149.07784627 15.13388255 171.03889644 15 193 C14.67 193 14.34 193 14 193 C13.99503478 191.64632812 13.99503478 191.64632812 13.98996925 190.26530933 C13.90877985 168.31562067 13.8167007 146.36600131 13.71247292 124.41640949 C13.66233245 113.80179094 13.61588967 103.18718016 13.578125 92.57250977 C13.54520334 83.32171189 13.50537111 74.07097414 13.45720994 64.82024258 C13.43194673 59.92120856 13.41016488 55.02221441 13.39665604 50.12313271 C13.38383413 45.51274862 13.36177822 40.90250127 13.33261681 36.29219246 C13.32354206 34.59950996 13.31785104 32.90680545 13.31578636 31.21409988 C13.3124631 28.90354883 13.29698411 26.59338529 13.2784729 24.28291321 C13.27294214 22.98963765 13.26741138 21.69636209 13.26171303 20.36389637 C12.87063987 15.33728539 12.01430589 12.87906511 8.1875 9.5625 C7.66285156 9.15644531 7.13820313 8.75039063 6.59765625 8.33203125 C4.00652812 6.17170193 2.0597202 3.66552026 0 1 C0 0.67 0 0.34 0 0 Z " fill="#2F0D13" transform="translate(702,248)"/>
<path d="M0 0 C3.8601978 1.2867326 5.79278334 3.70738638 8 7 C10.05004448 11.17686164 10.24714321 14.61761061 10.24050903 19.24494934 C10.24221788 19.96384313 10.24392673 20.68273692 10.24568737 21.42341536 C10.24897521 23.82640579 10.23799034 26.22911548 10.22705078 28.63208008 C10.22648651 30.35693353 10.22680353 32.08178746 10.22793579 33.80664062 C10.2285097 38.48598948 10.21674916 43.16523583 10.20278788 47.84456086 C10.19028692 52.7359428 10.18911052 57.62732708 10.18673706 62.51872253 C10.18052043 71.77985413 10.16410712 81.04093853 10.14403808 90.30204934 C10.1216848 100.84609349 10.11068708 111.39013989 10.10064721 121.93420184 C10.07974107 143.62282757 10.0445615 165.31141081 10 187 C9.67 187 9.34 187 9 187 C8.99503478 185.67228529 8.99503478 185.67228529 8.98996925 184.31774807 C8.90873473 162.77627192 8.81664071 141.23486604 8.71247292 119.69348812 C8.66235972 109.2762238 8.6159166 98.8589673 8.578125 88.44165039 C8.545175 79.36149778 8.50532708 70.28140608 8.45720994 61.20132071 C8.43197493 56.39388487 8.41018475 51.58648927 8.39665604 46.77900505 C8.38380854 42.25233304 8.36172507 37.72579925 8.33261681 33.19920349 C8.32356206 31.53961241 8.31785571 29.87999909 8.31578636 28.2203846 C8.31244892 25.94994393 8.2969319 23.67989165 8.2784729 21.40953064 C8.27294214 20.1402217 8.26741138 18.87091276 8.26171303 17.56313992 C7.97966463 13.7231404 7.18053608 10.64867877 6 7 C5.01 7 4.02 7 3 7 C0 2.77777778 0 2.77777778 0 0 Z " fill="#54101C" transform="translate(704,252)"/>
<path d="M0 0 C4.66423095 2.57821811 8.95558171 5.32678451 13.25 8.5 C23.65019338 16.05012677 34.56719561 22.84274679 45.66015625 29.32421875 C47.04533447 30.13753662 47.04533447 30.13753662 48.45849609 30.96728516 C50.25098839 32.01507051 52.04937097 33.05285582 53.85400391 34.07958984 C54.6588623 34.54961426 55.4637207 35.01963867 56.29296875 35.50390625 C57.0099292 35.91455322 57.72688965 36.3252002 58.46557617 36.74829102 C58.97193604 37.16135498 59.4782959 37.57441895 60 38 C60 38.99 60 39.98 60 41 C59.48566406 40.73058594 58.97132813 40.46117187 58.44140625 40.18359375 C54.72002712 38.37946915 50.8792622 36.84601808 47.04492188 35.29882812 C43.75803376 33.92724514 41.36146831 32.66883403 39 30 C38.13375 29.566875 37.2675 29.13375 36.375 28.6875 C25 23 25 23 23 19 C21.26554286 18.01823181 19.52969763 17.03866141 17.78125 16.08203125 C15.50053913 14.69659943 13.81111827 12.94527518 12 11 C11.34 10.67 10.68 10.34 10 10 C10 9.34 10 8.68 10 8 C9.278125 7.7525 8.55625 7.505 7.8125 7.25 C4.72393418 5.87730408 2.48988582 4.27646704 0 2 C0 1.34 0 0.68 0 0 Z " fill="#5E111E" transform="translate(428,623)"/>
<path d="M0 0 C0 0.99 0 1.98 0 3 C-1.33333333 4.33333333 -2.66666667 5.66666667 -4 7 C-4.4640625 8.175625 -4.4640625 8.175625 -4.9375 9.375 C-7.71445991 16.23572448 -13.61104779 20.21673523 -19.2265625 24.703125 C-22.40093314 27.3320404 -25.25089693 30.16190714 -28.12109375 33.11328125 C-30.5532041 35.55550433 -33.13459897 37.78484169 -35.75 40.02734375 C-37.95312477 41.95890279 -40.09236575 43.94989449 -42.22973633 45.95361328 C-47.71926169 51.08610351 -53.37706005 55.67427242 -59.50390625 60.02734375 C-62.03351341 61.8399256 -62.03351341 61.8399256 -63.52734375 64.12890625 C-65.41269704 66.52435513 -67.17037896 66.94259303 -70 68 C-71.64320519 69.15468473 -73.24881596 70.36471734 -74.8125 71.625 C-75.60269531 72.25664063 -76.39289062 72.88828125 -77.20703125 73.5390625 C-77.79871094 74.02117187 -78.39039063 74.50328125 -79 75 C-79.66 74.67 -80.32 74.34 -81 74 C-78.91809201 72.35233613 -76.83480584 70.70649205 -74.75 69.0625 C-74.11537842 68.56177979 -73.48075684 68.06105957 -72.8269043 67.54516602 C-68.87154143 64.43607601 -64.8695768 61.41233424 -60.8125 58.4375 C-55.76245123 54.67854226 -51.11849392 50.61041031 -46.5078125 46.328125 C-44.41238929 44.38284115 -42.29027328 42.49130249 -40.125 40.625 C-31.94714112 33.49040707 -23.81170475 26.32789719 -16.78125 18.03515625 C-14.62830716 15.57532463 -12.31310045 13.3096429 -10 11 C-8.21822291 9.07255938 -6.4473074 7.13502019 -4.6875 5.1875 C-3.80449219 4.21167969 -2.92148437 3.23585938 -2.01171875 2.23046875 C-1.01591797 1.12638672 -1.01591797 1.12638672 0 0 Z " fill="#3A0E15" transform="translate(660,564)"/>
<path d="M0 0 C1.07281368 3.21844104 0.94569328 4.01836119 0.1875 7.1875 C-1.00802721 12.64007341 -1.68222616 18.10001852 -2.30200195 23.64135742 C-2.89861671 28.79723342 -2.89861671 28.79723342 -4 31 C-4.66 31 -5.32 31 -6 31 C-6.09796875 31.556875 -6.1959375 32.11375 -6.296875 32.6875 C-7.41146022 38.37572804 -9.20453935 42.9501356 -12 48 C-12.50273438 48.94875 -13.00546875 49.8975 -13.5234375 50.875 C-17.70181564 58.70181564 -17.70181564 58.70181564 -20 61 C-19.47991578 56.52727571 -18.31972543 53.80434971 -16 50 C-15.2863409 47.68060793 -14.6252708 45.34476551 -14 43 C-13.0301809 39.98971991 -12.01841914 36.99415228 -11 34 C-10.34 34 -9.68 34 -9 34 C-8.87625 33.29875 -8.7525 32.5975 -8.625 31.875 C-8 29 -8 29 -7 26.125 C-5.92280302 22.75875943 -5.47963297 19.49446878 -5 16 C-4.67 15.67 -4.34 15.34 -4 15 C-3.63239269 12.67182036 -3.29758419 10.3381615 -3 8 C-2.34 8 -1.68 8 -1 8 C-1.020625 7.05125 -1.04125 6.1025 -1.0625 5.125 C-1 2 -1 2 0 0 Z " fill="#490F19" transform="translate(710,460)"/>
<path d="M0 0 C0 0.66 0 1.32 0 2 C-5.75 5 -5.75 5 -8 5 C-8 5.66 -8 6.32 -8 7 C-8.66 7 -9.32 7 -10 7 C-10 7.66 -10 8.32 -10 9 C-15.20546499 12.1790066 -21.11573835 11.45541583 -27 11 C-33.15759859 9.1214106 -38.54979656 5.38855707 -44 2 C-40.52176885 0.84058962 -38.54104422 1.29179116 -35 2 C-35 2.66 -35 3.32 -35 4 C-28.2468534 7.06961209 -21.18338311 7.85093307 -14 6 C-10.74800075 4.55822693 -7.62992464 2.97409702 -4.50390625 1.27734375 C-2 0 -2 0 0 0 Z " fill="#5B101D" transform="translate(533,663)"/>
<path d="M0 0 C6.06886428 4.45875743 11.9488022 9.13028514 17.80688477 13.86035156 C18.43393311 14.3653418 19.06098145 14.87033203 19.70703125 15.390625 C20.2688208 15.84469727 20.83061035 16.29876953 21.40942383 16.76660156 C22.88850195 17.91353981 24.44267846 18.96178564 26 20 C26.6875 22.125 26.6875 22.125 27 24 C21.90634861 23.41227099 18.36375449 19.49573073 15.0625 15.875 C12.96909957 13.76150605 12.96909957 13.76150605 9.5625 12.5625 C5.67394034 10.85699138 3.62568417 9.32071821 1 6 C0.1875 2.6875 0.1875 2.6875 0 0 Z " fill="#51101B" transform="translate(402,602)"/>
<path d="M0 0 C0.33 0 0.66 0 1 0 C1.04241723 2.33294775 1.04092937 4.66702567 1 7 C0.67 7.33 0.34 7.66 0 8 C-0.32466759 9.51413158 -0.60947324 11.03688569 -0.875 12.5625 C-1.77711412 17.31226752 -3.1780653 21.52797846 -5 26 C-5.66 26 -6.32 26 -7 26 C-7.12375 27.485 -7.12375 27.485 -7.25 29 C-8.31650856 36.34705898 -12.64150562 42.18867417 -17 48 C-17.33 47.34 -17.66 46.68 -18 46 C-17.07137808 43.96587579 -16.06246527 41.96752828 -15 40 C-14.67 39.34 -14.34 38.68 -14 38 C-13.19582254 36.39164508 -12.38087865 34.78867561 -11.5625 33.1875 C-8.56307838 27.06867989 -6.47664834 21.30460523 -4.7578125 14.71875 C-3.73322101 11.04289599 -2.37358163 7.55882514 -1 4 C-0.64965762 2.67103457 -0.31183223 1.33852514 0 0 Z " fill="#671120" transform="translate(706,468)"/>
<path d="M0 0 C0.66 0.33 1.32 0.66 2 1 C-2.12476268 5.66749461 -5.98379592 8.20294582 -11.6015625 10.8515625 C-15.72539433 12.82616602 -19.10974544 14.77206267 -21.8125 18.5 C-24.857889 21.98044457 -28.54414371 23.79189812 -33 25 C-35.28125 24.6015625 -35.28125 24.6015625 -37 24 C-36.34 23.608125 -35.68 23.21625 -35 22.8125 C-33.30736444 21.78986601 -31.6208332 20.75640527 -29.95703125 19.6875 C-28.89548828 19.006875 -28.89548828 19.006875 -27.8125 18.3125 C-27.13832031 17.87550781 -26.46414063 17.43851563 -25.76953125 16.98828125 C-24 16 -24 16 -22 16 C-22 15.34 -22 14.68 -22 14 C-21.21625 13.649375 -20.4325 13.29875 -19.625 12.9375 C-15.61046939 10.9397478 -12.05720683 8.31627889 -8.4140625 5.71875 C-5.64783623 3.74926852 -2.83651311 1.86612705 0 0 Z " fill="#380D15" transform="translate(577,639)"/>
<path d="M0 0 C0 4.20332536 -2.15694586 6.9127456 -4.3125 10.375 C-4.71662109 11.035 -5.12074219 11.695 -5.53710938 12.375 C-6.32580359 13.66255933 -7.11880692 14.94749098 -7.91650391 16.22949219 C-8.8711797 17.78949869 -9.77389561 19.38105024 -10.66796875 20.9765625 C-11.10753906 21.64429688 -11.54710937 22.31203125 -12 23 C-12.66 23 -13.32 23 -14 23 C-14.33 23.99 -14.66 24.98 -15 26 C-16.84765625 27.82421875 -16.84765625 27.82421875 -19.0625 29.6875 C-19.79597656 30.31011719 -20.52945313 30.93273437 -21.28515625 31.57421875 C-21.85105469 32.04472656 -22.41695312 32.51523437 -23 33 C-23 29.48946241 -22.54106453 29.15436403 -20.25 26.6875 C-18.18942319 24.40337004 -16.38160634 22.17059801 -14.75 19.5625 C-14.1725 18.716875 -13.595 17.87125 -13 17 C-12.34 17 -11.68 17 -11 17 C-10.773125 16.484375 -10.54625 15.96875 -10.3125 15.4375 C-8.83164071 12.68733274 -7.07567091 10.266407 -5.23828125 7.74609375 C-3.69598651 5.57131221 -2.35117834 3.29700317 -1 1 C-0.67 0.67 -0.34 0.34 0 0 Z " fill="#390D15" transform="translate(685,530)"/>
<path d="M0 0 C4.5354775 3.81392426 8.94617995 7.74491754 13.3125 11.75 C13.84004883 12.23380127 14.36759766 12.71760254 14.91113281 13.21606445 C16.9741929 15.11385361 19.01762537 17.01762537 21 19 C14.91339453 18.61958716 10.66881893 14.30978499 6.2578125 10.4921875 C5 9 5 9 5 6 C3.68 5.67 2.36 5.34 1 5 C0.67 3.35 0.34 1.7 0 0 Z " fill="#450F18" transform="translate(381,583)"/>
<path d="M0 0 C1.30773734 3.92321202 0.53533145 7.09763246 -0.1875 11.0625 C-0.32478516 11.82457764 -0.46207031 12.58665527 -0.60351562 13.37182617 C-2.06420504 21.01691227 -4.1190591 27.82949233 -9 34 C-8.51764925 31.26667907 -7.91352117 28.75137335 -7 26.125 C-5.92280302 22.75875943 -5.47963297 19.49446878 -5 16 C-4.67 15.67 -4.34 15.34 -4 15 C-3.63239269 12.67182036 -3.29758419 10.3381615 -3 8 C-2.34 8 -1.68 8 -1 8 C-1.020625 7.05125 -1.04125 6.1025 -1.0625 5.125 C-1 2 -1 2 0 0 Z " fill="#510F1B" transform="translate(710,460)"/>
<path d="M0 0 C0 0.66 0 1.32 0 2 C-5.75 5 -5.75 5 -8 5 C-8 5.66 -8 6.32 -8 7 C-11.86226035 8.79905658 -14.93812052 9.27111493 -19.1875 9.25 C-20.23292969 9.25515625 -21.27835937 9.2603125 -22.35546875 9.265625 C-25 9 -25 9 -27 7 C-26.20078125 6.99742187 -25.4015625 6.99484375 -24.578125 6.9921875 C-16.72177989 6.71555563 -11.21303278 5.13316415 -4.36328125 1.27734375 C-2 0 -2 0 0 0 Z " fill="#691121" transform="translate(533,663)"/>
<path d="M0 0 C5.10070214 3.41662234 8.73755415 6.06107964 11 12 C7.53245088 11.7027815 6.01530481 11.01217428 3.25 8.8125 C0.78538452 5.73173064 0.27096447 3.88382414 0 0 Z " fill="#430F17" transform="translate(402,602)"/>
<path d="M0 0 C1.41687119 4.25061356 0.19320039 6.71851625 -1 11 C-1.66 11 -2.32 11 -3 11 C-3.12117187 11.63808594 -3.24234375 12.27617187 -3.3671875 12.93359375 C-3.53476562 13.75988281 -3.70234375 14.58617187 -3.875 15.4375 C-4.03742187 16.26121094 -4.19984375 17.08492188 -4.3671875 17.93359375 C-4.57601562 18.61550781 -4.78484375 19.29742187 -5 20 C-5.66 20.33 -6.32 20.66 -7 21 C-6.51966194 16.10055182 -5.56142416 13.13768517 -3 9 C-1.89062553 6.03330176 -0.92993879 3.02724756 0 0 Z " fill="#3B0E16" transform="translate(707,480)"/>
<path d="M0 0 C0.33 0.66 0.66 1.32 1 2 C-1.12081604 6.32018082 -2.79664822 9.44796499 -7 12 C-6.71125 11.443125 -6.4225 10.88625 -6.125 10.3125 C-4.94831521 7.99356912 -4.94831521 7.99356912 -4.0625 5.4375 C-3.00295035 3.00676845 -1.98606905 1.71524145 0 0 Z " fill="#450E18" transform="translate(689,521)"/>
<path d="M0 0 C0.66 0 1.32 0 2 0 C1.52797514 4.24822374 -0.96655518 6.19989709 -4 9 C-3.35494404 5.51669784 -2.01782732 2.90567134 0 0 Z " fill="#1E0B0E" transform="translate(671,553)"/>
<path d="M0 0 C0.66 0.33 1.32 0.66 2 1 C-1.28804981 3.91227269 -3.59885603 5.49701212 -8 6 C-5.54080489 3.3651481 -3.42227589 1.25483449 0 0 Z " fill="#3C0E16" transform="translate(538,664)"/>
<path d="M0 0 C4.24822374 0.47202486 6.19989709 2.96655518 9 6 C4.64464931 4.83857315 2.35380297 3.92300495 0 0 Z " fill="#4E0F1A" transform="translate(467,652)"/>
</svg>
